<?xml version="1.0" encoding="UTF-8"?>
<svg width="500" height="295.18" version="1.1" viewBox="0 0 132.29166 78.099442" xmlns="http://www.w3.org/2000/svg">
 <defs>
  <filter id="c" x="-.02997" y="-.054124" width="1.0599" height="1.1082" color-interpolation-filters="sRGB">
   <feGaussianBlur stdDeviation="6.0737909"/>
  </filter>
  <linearGradient id="d" x1="936" x2="856.49" y1="646.98" y2="428.35" gradientUnits="userSpaceOnUse">
   <stop stop-color="#f3f5f6" offset="0"/>
   <stop stop-color="#c7cdd0" offset="1"/>
  </linearGradient>
 </defs>
 <g transform="translate(0 -218.9)">
  <g transform="matrix(.27121 0 0 .27121 -102.98 303.06)">
   <path transform="matrix(.93878 0 0 .92946 39.728 -5.7929)" d="m475.73-301.72h305.9l83.863 269.33h-486.38l96.623-269.33" fill="#424242" fill-rule="evenodd" filter="url(#c)" style="paint-order:normal"/>
   <g transform="translate(-279.09 -777.66)">
    <path d="m756.12 467.84h305.9l83.863 269.33h-486.38l96.623-269.33" fill="url(#d)" fill-rule="evenodd"/>
    <path d="m706.82 709.61c-2.246 0-5.1635-3.3448-4.5145-5.4113l69.806-222.28c0.32488-1.0345 3.4927-2.4923 5.1489-2.4923h263.08c1.8068 0 4.778 1.5438 5.0309 2.4923l59.276 222.28c0.5678 2.1293-2.5084 5.4748-5.0542 5.4748-2.5457 0-389.63-0.0634-392.77-0.0634m391.56-1.4555c2.2414 0 4.8309-2.6422 4.3028-4.642l-58.439-221.28c-0.228-0.86357-2.6217-2.1244-4.2803-2.1244h-262.36c-1.4575 0-4.094 1.2034-4.3809 2.1244-0.32408 1.0405-68.319 219.1-68.977 221.22-0.58392 1.8741 1.3373 4.578 3.7277 4.578 1.7181 0 29.506 0.5686 195.17 0.5686 139.87 0 193.89-0.44233 195.23-0.44233" fill="#2f2f51"/>
    <path d="m704.82 713.95c-6.1019 0-9.4935-4.2121-8.0948-8.562l42.948-133.56s29.085-90.452 29.085-90.452c0.66229-2.0597 4.7625-3.9319 8.1606-3.9319h263.86c3.3982 0 7.4956 2.1858 7.9744 3.9319l24.8 90.452 36.62 133.56c1.2796 4.6672-3.9293 8.7547-7.9984 8.7547h-198.03c-108.9 0.0642-198.61-0.0642-199.33-0.19267m394.36-2.6863c4.8029 0 8.3222-2.5393 7.4414-5.8131l-35.949-133.63-24.35-90.51c-0.3237-1.2034-3.1322-2.5143-5.0868-2.5143h-264.84c-2.0548 0-4.8343 1.3395-5.206 2.5143l-28.638 90.51-42.28 133.63c-1.0758 3.4002 3.4335 5.7494 6.7352 5.7494 3.168 0.44621 388.9 0.50999 392.16 0.0637" fill="#989898"/>
    <path d="m770.43 500.45h30.73c1.2061 0 2.0164 0.56066 1.8452 1.2789l-4.5298 19.005c-0.19335 0.81121-1.3164 1.3874-2.576 1.3874h-32.092c-1.2048 0-2.0668-0.57617-1.8153-1.3874l5.891-19.005c0.22265-0.71828 1.3928-1.2789 2.5465-1.2789" fill-rule="evenodd"/>
    <path d="m770.94 500.85h29.496c1.1022 0 1.9122 0.5616 1.7471 1.2497l-4.3712 18.225c-0.17805 0.74233-1.3008 1.3174-2.4498 1.3174h-30.749c-1.149 0-1.9564-0.57509-1.7274-1.3174l5.6218-18.225c0.21227-0.68814 1.3302-1.2497 2.4324-1.2497" fill="#135883" fill-rule="evenodd"/>
    <path d="m756.56 545.84h33.582c1.3181 0 2.1899 0.66963 1.9854 1.5277l-5.4318 22.79c-0.22301 0.93566-1.4797 1.6701-2.8618 1.6701h-35.215c-1.3221 0-2.2362-0.73445-1.9462-1.6701l7.0641-22.79c0.26598-0.85808 1.5624-1.5277 2.8232-1.5277" fill-rule="evenodd"/>
    <path d="m757.1 546.32h32.236c1.2046 0 2.0761 0.67084 1.8879 1.4556l-5.2506 21.891c-0.21427 0.89336-1.4609 1.5856-2.7216 1.5856h-33.738c-1.2607 0-2.1277-0.69228-1.8522-1.5856l6.7528-21.891c0.24208-0.78477 1.4815-1.4556 2.686-1.4556" fill="#135883" fill-rule="evenodd"/>
    <path d="m739.87 600.47h37.015c1.4528 0 2.385 0.85889 2.1472 1.8565l-6.6436 27.874c-0.27356 1.1478-1.6866 2.049-3.2178 2.049h-39.011c-1.4646 0-2.4501-0.90121-2.0944-2.049l8.6401-27.874c0.30924-0.99764 1.7756-1.8565 3.1652-1.8565" fill-rule="evenodd"/>
    <path d="m740.44 601.1h35.537c1.3279 0 2.2705 0.81537 2.0417 1.7695l-6.4114 26.731c-0.26278 1.0956-1.6634 1.9449-3.0599 1.9449h-37.371c-1.3964 0-2.3314-0.8493-1.9934-1.9449l8.2457-26.731c0.29431-0.95412 1.684-1.7695 3.0119-1.7695" fill="#135883" fill-rule="evenodd"/>
    <path d="m719.36 667.6h41.232c1.6183 0 2.6307 1.066 2.3355 2.3046l-8.2946 34.801c-0.34347 1.4411-1.9563 2.573-3.6725 2.573h-43.725c-1.6416 0-2.7084-1.132-2.2617-2.573l10.787-34.801c0.38393-1.2386 2.0512-2.3046 3.5992-2.3046" fill-rule="evenodd"/>
    <path d="m719.96 668.38h39.591c1.4794 0 2.5047 1.0122 2.2205 2.197l-8.0046 33.374c-0.31484 1.3127-1.9271 2.4418-3.492 2.4418h-41.881c-1.565 0-2.5581-1.1291-2.1532-2.4418l10.295-33.374c0.36549-1.1848 1.9458-2.197 3.4251-2.197" fill="#135883" fill-rule="evenodd"/>
    <path d="m810.13 480.51h29.427c1.2073 0 1.9716 0.54456 1.8661 1.1767l-2.9173 17.487c-0.11893 0.71291-1.1038 1.2723-2.3623 1.2723h-30.678c-1.2061 0-2.0167-0.55938-1.8468-1.2723l4.1679-17.487c0.15066-0.63212 1.1859-1.1767 2.3429-1.1767" fill-rule="evenodd"/>
    <path d="m810.64 480.91h28.244c1.1076 0 1.8765 0.51674 1.7748 1.121l-2.823 16.77c-0.10938 0.64984-1.0941 1.2082-2.2467 1.2082h-29.393c-1.1527 0-1.9634-0.55838-1.8095-1.2082l3.9738-16.77c0.14319-0.60431 1.1719-1.121 2.2795-1.121" fill="#135883" fill-rule="evenodd"/>
    <path d="m800.39 522.12h32.037c1.3144 0 2.1376 0.6455 2.0126 1.395l-3.4707 20.804c-0.14199 0.85107-1.2276 1.519-2.603 1.519h-33.525c-1.3181 0-2.1904-0.66795-1.9876-1.519l4.9586-20.804c0.17863-0.74945 1.3182-1.395 2.5778-1.395" fill-rule="evenodd"/>
    <path d="m800.94 522.6h30.751c1.2059 0 2.0404 0.57855 1.914 1.3292l-3.3584 19.951c-0.13057 0.77567-1.2161 1.4423-2.4756 1.4423h-32.118c-1.2595 0-2.1321-0.66666-1.9483-1.4423l4.7276-19.951c0.17787-0.75065 1.3016-1.3292 2.5076-1.3292" fill="#135883" fill-rule="evenodd"/>
    <path d="m788.76 571.83h35.155c1.4422 0 2.3342 0.77734 2.1836 1.6801l-4.1905 25.119c-0.17994 1.0785-1.3816 1.8449-2.8976 1.8449h-36.951c-1.4528 0-2.4071-0.76636-2.15-1.8449l5.987-25.119c0.21517-0.90277 1.4821-1.6801 2.8643-1.6801" fill-rule="evenodd"/>
    <path d="m789.35 572.4h33.747c1.3234 0 2.2288 0.69683 2.0765 1.6012l-4.0622 24.132c-0.15855 0.94192-1.3676 1.7517-2.7558 1.7517h-35.4c-1.3882 0-2.3322-0.80976-2.109-1.7517l5.7182-24.132c0.21429-0.90436 1.4622-1.6012 2.7856-1.6012" fill="#135883" fill-rule="evenodd"/>
    <path d="m774.63 632.25h38.945c1.5977 0 2.5787 0.90384 2.3854 2.0626l-5.1711 30.996c-0.22316 1.3376-1.578 2.2885-3.2666 2.2885h-41.162c-1.6183 0-2.6582-0.95082-2.3394-2.2885l7.3879-30.996c0.27618-1.1587 1.6899-2.0626 3.2211-2.0626" fill-rule="evenodd"/>
    <path d="m775.26 632.95h37.389c1.4663 0 2.4553 0.85549 2.2683 1.9661l-5.0034 29.723c-0.20595 1.2235-1.5699 2.2279-3.1161 2.2279h-39.429c-1.5463 0-2.5734-1.0044-2.2835-2.2279l7.043-29.723c0.26316-1.1106 1.6655-1.9661 3.1318-1.9661" fill="#135883" fill-rule="evenodd"/>
    <path d="m840.44 500.45h30.73c1.2061 0 2.0967 0.56066 2.0283 1.2789l-1.8094 19.005c-0.0772 0.81121-1.1178 1.3874-2.3774 1.3874h-32.092c-1.2048 0-2.1492-0.57617-2.0138-1.3874l3.1706-19.005c0.11983-0.71828 1.2097-1.2789 2.3634-1.2789" fill-rule="evenodd"/>
    <path d="m841.01 500.85h29.496c1.1022 0 1.9926 0.5616 1.926 1.2497 0 0-1.7625 18.225-1.7625 18.225-0.0718 0.74233-1.1122 1.3174-2.2612 1.3174h-30.749c-1.2037 0-2.0387-0.57509-1.916-1.3174l3.0131-18.225c0.11377-0.68814 1.0988-1.2497 2.2535-1.2497" fill="#135883" fill-rule="evenodd"/>
    <path d="m833.07 545.84h33.582c1.3181 0 2.2858 0.66963 2.2042 1.5277 0 0-2.1697 22.79-2.1697 22.79-0.0891 0.93566-1.2407 1.6701-2.6229 1.6701h-35.215c-1.3221 0-2.3412-0.73445-2.1852-1.6701l3.802-22.79c0.14315-0.85808 1.3436-1.5277 2.6044-1.5277" fill-rule="evenodd"/>
    <path d="m833.68 546.32h32.236c1.2046 0 2.1721 0.67084 2.0962 1.4556l-2.117 21.891c-0.0864 0.89336-1.2339 1.5856-2.4946 1.5856h-33.738c-1.3207 0-2.2268-0.69228-2.0791-1.5856l3.6192-21.891c0.12974-0.78477 1.2158-1.4556 2.4777-1.4556" fill="#135883" fill-rule="evenodd"/>
    <path d="m824.19 600.47h37.015c1.4528 0 2.508 0.85889 2.413 1.8565l-2.6537 27.874c-0.10927 1.1478-1.3934 2.049-2.9246 2.049h-39.011c-1.4646 0-2.579-0.90121-2.3876-2.049l4.6502-27.874c0.16644-0.99764 1.5098-1.8565 2.8994-1.8565" fill-rule="evenodd"/>
    <path d="m824.85 601.1h35.537c1.3279 0 2.3872 0.81537 2.295 1.7695 0 0-2.5851 26.731-2.5851 26.731-0.10596 1.0956-1.385 1.9449-2.7815 1.9449h-37.371c-1.4629 0-2.453-0.8493-2.2718-1.9449l4.4194-26.731c0.15774-0.95412 1.3675-1.7695 2.7586-1.7695" fill="#135883" fill-rule="evenodd"/>
    <path d="m813.29 667.6h41.232c1.6183 0 2.7834 1.066 2.6655 2.3046l-3.3132 34.801c-0.13719 1.4411-1.5881 2.573-3.3043 2.573h-43.725c-1.6416 0-2.8704-1.132-2.63-2.573l5.8058-34.801c0.20663-1.2386 1.7213-2.3046 3.2692-2.3046" fill-rule="evenodd"/>
    <path d="m814.01 668.38h39.591c1.4794 0 2.6495 1.0122 2.535 2.197 0 0-3.2274 33.374-3.2274 33.374-0.12695 1.3127-1.5776 2.4418-3.1425 2.4418h-41.881c-1.6395 0-2.7197-1.1291-2.5027-2.4418l5.5176-33.374c0.19588-1.1848 1.5608-2.197 3.1106-2.197" fill="#135883" fill-rule="evenodd"/>
    <path d="m877.28 480.51h29.427c1.157 0 2.0495 0.54456 2.0346 1.1767l-0.41423 17.487c-0.0169 0.71291-0.97407 1.2723-2.1802 1.2723h-30.678c-1.2061 0-2.0968-0.55938-2.0289-1.2723l1.6648-17.487c0.0602-0.63212 1.0174-1.1767 2.1744-1.1767" fill-rule="evenodd"/>
    <path d="m877.8 480.91h28.294c1.1076 0 1.9505 0.51674 1.9353 1.121l-0.42243 16.77c-0.0164 0.64984-0.92114 1.2082-2.0738 1.2082h-29.445c-1.1003 0-1.9909-0.55838-1.93-1.2082l1.5732-16.77c0.0567-0.60431 1.0113-1.121 2.0686-1.121" fill="#135883" fill-rule="evenodd"/>
    <path d="m873.5 522.12h32.037c1.2596 0 2.23 0.6455 2.2123 1.395l-0.49281 20.804c-0.0202 0.85107-1.0675 1.519-2.3856 1.519h-33.525c-1.3181 0-2.2859-0.66795-2.2049-1.519l1.9807-20.804c0.0713-0.74945 1.1185-1.395 2.3781-1.395" fill-rule="evenodd"/>
    <path d="m874.06 522.6h30.806c1.2059 0 2.1232 0.57855 2.1043 1.3292l-0.50257 19.951c-0.0195 0.77567-1.0096 1.4423-2.2692 1.4423h-32.175c-1.2023 0-2.1702-0.66666-2.0974-1.4423l1.8717-19.951c0.0704-0.75065 1.1113-1.3292 2.2624-1.3292" fill="#135883" fill-rule="evenodd"/>
    <path d="m868.99 571.83h35.155c1.3822 0 2.4454 0.77734 2.424 1.6801l-0.59501 25.119c-0.0255 1.0785-1.1807 1.8449-2.6335 1.8449h-36.951c-1.4528 0-2.5167-0.76636-2.414-1.8449l2.3914-25.119c0.086-0.90277 1.2416-1.6801 2.6237-1.6801" fill-rule="evenodd"/>
    <path d="m869.6 572.4h33.807c1.3234 0 2.3285 0.69683 2.3057 1.6012l-0.60787 24.132c-0.0237 0.94192-1.1169 1.7517-2.5051 1.7517h-35.463c-1.3252 0-2.385-0.80976-2.2966-1.7517l2.2638-24.132c0.0848-0.90436 1.2329-1.6012 2.4962-1.6012" fill="#135883" fill-rule="evenodd"/>
    <path d="m863.5 632.25h38.945c1.5312 0 2.7081 0.90384 2.6806 2.0626l-0.73425 30.996c-0.0317 1.3376-1.3207 2.2885-2.9391 2.2885h-41.162c-1.6183 0-2.7943-0.95082-2.6669-2.2885l2.951-30.996c0.11032-1.1587 1.3946-2.0626 2.9258-2.0626" fill-rule="evenodd"/>
    <path d="m864.17 632.95h37.456c1.4663 0 2.5777 0.85549 2.5498 1.9661l-0.74871 29.723c-0.0308 1.2235-1.251 2.2279-2.7972 2.2279h-39.5c-1.476 0-2.6468-1.0044-2.532-2.2279l2.7884-29.723c0.10418-1.1106 1.384-1.9661 2.7836-1.9661" fill="#135883" fill-rule="evenodd"/>
    <path d="m910.45 500.45h30.678c1.2586 0 2.1769 0.56066 2.2112 1.2789l0.90899 19.005c0.0388 0.81121-0.86464 1.3874-2.179 1.3874h-32.037c-1.2047 0-2.2316-0.57617-2.2124-1.3874l0.45019-19.005c0.017-0.71828 1.0267-1.2789 2.1803-1.2789" fill-rule="evenodd"/>
    <path d="m911.07 500.85h29.496c1.1022 0 2.073 0.5616 2.1049 1.2497l0.84627 18.225c0.0345 0.74233-0.92367 1.3174-2.0726 1.3174h-30.749c-1.2037 0-2.121-0.57509-2.1045-1.3174l0.40435-18.225c0.0153-0.68814 0.91989-1.2497 2.0745-1.2497" fill="#135883" fill-rule="evenodd"/>
    <path d="m909.57 545.84h33.525c1.3754 0 2.3816 0.66963 2.4227 1.5277l1.09 22.79c0.0448 0.93566-0.94172 1.6701-2.384 1.6701h-35.155c-1.322 0-2.4464-0.73445-2.4242-1.6701l0.53985-22.79c0.0203-0.85808 1.125-1.5277 2.3857-1.5277" fill-rule="evenodd"/>
    <path d="m910.25 546.32h32.236c1.2046 0 2.2682 0.67084 2.3046 1.4556l1.0165 21.891c0.0415 0.89336-1.007 1.5856-2.2676 1.5856h-33.738c-1.3207 0-2.3258-0.69228-2.306-1.5856l0.48571-21.891c0.0174-0.78477 1.0073-1.4556 2.2692-1.4556" fill="#135883" fill-rule="evenodd"/>
    <path d="m908.52 600.47h36.951c1.516 0 2.6308 0.85889 2.6786 1.8565l1.3332 27.874c0.0549 1.1478-1.0337 2.049-2.6315 2.049h-38.945c-1.4645 0-2.708-0.90121-2.6809-2.049l0.66028-27.874c0.0236-0.99764 1.2441-1.8565 2.6337-1.8565" fill-rule="evenodd"/>
    <path d="m909.27 601.1h35.537c1.3279 0 2.5039 0.81537 2.5482 1.7695l1.2413 26.731c0.0509 1.0956-1.1066 1.9449-2.5031 1.9449h-37.371c-1.4629 0-2.5745-0.8493-2.5502-1.9449l0.59308-26.731c0.0212-0.95412 1.1141-1.7695 2.5053-1.7695" fill="#135883" fill-rule="evenodd"/>
    <path d="m907.22 667.6h41.162c1.6887 0 2.9358 1.066 2.9951 2.3046 0 0 1.6645 34.801 1.6645 34.801 0.0689 1.4411-1.1454 2.573-2.9362 2.573h-43.651c-1.6415 0-3.0324-1.132-2.9983-2.573l0.82436-34.801c0.0293-1.2386 1.3915-2.3046 2.9394-2.3046" fill-rule="evenodd"/>
    <path d="m908.05 668.38h39.591c1.4794 0 2.7944 1.0122 2.8494 2.197l1.5497 33.374c0.0609 1.3127-1.228 2.4418-2.793 2.4418h-41.881c-1.6395 0-2.8812-1.1291-2.8521-2.4418l0.74046-33.374c0.0263-1.1848 1.2462-2.197 2.7961-2.197" fill="#135883" fill-rule="evenodd"/>
    <path d="m944.39 480.51h29.477c1.157 0 2.1275 0.54456 2.203 1.1767l2.0889 17.487c0.0852 0.71291-0.79196 1.2723-1.9981 1.2723h-30.73c-1.1536 0-2.1768-0.55938-2.2108-1.2723l-0.83638-17.487c-0.0302-0.63212 0.89948-1.1767 2.0061-1.1767" fill-rule="evenodd"/>
    <path d="m945.01 480.91h28.294c1.1076 0 2.0244 0.51674 2.0957 1.121l1.9781 16.77c0.0766 0.64984-0.74818 1.2082-1.9008 1.2082h-29.445c-1.1003 0-2.0708-0.55838-2.1029-1.2082l-0.82728-16.77c-0.0298-0.60431 0.85087-1.121 1.9081-1.121" fill="#135883" fill-rule="evenodd"/>
    <path d="m946.56 522.12h32.092c1.2596 0 2.3224 0.6455 2.412 1.395l2.4851 20.804c0.10166 0.85107-0.85008 1.519-2.1682 1.519h-33.582c-1.2607 0-2.3815-0.66795-2.4222-1.519l-0.99504-20.804c-0.0358-0.74945 0.97381-1.395 2.1786-1.395" fill-rule="evenodd"/>
    <path d="m947.24 522.6h30.806c1.2059 0 2.206 0.57855 2.2946 1.3292l2.3533 19.951c0.0915 0.77567-0.80316 1.4423-2.0627 1.4423h-32.175c-1.2023 0-2.2656-0.66666-2.3039-1.4423l-0.98421-19.951c-0.037-0.75065 0.92104-1.3292 2.0722-1.3292" fill="#135883" fill-rule="evenodd"/>
    <path d="m949.15 571.83h35.215c1.3822 0 2.5567 0.77734 2.6646 1.6801l3.0005 25.119c0.12883 1.0785-0.9166 1.8449-2.3694 1.8449h-37.015c-1.3896 0-2.6264-0.76636-2.6779-1.8449l-1.2014-25.119c-0.0432-0.90277 1.0614-1.6801 2.3834-1.6801" fill-rule="evenodd"/>
    <path d="m949.91 572.4h33.807c1.3234 0 2.4282 0.69683 2.5349 1.6012l2.8464 24.132c0.1111 0.94192-0.86613 1.7517-2.2544 1.7517h-35.463c-1.3252 0-2.5009-0.80976-2.5473-1.7517l-1.1904-24.132c-0.0446-0.90436 1.0037-1.6012 2.267-1.6012" fill="#135883" fill-rule="evenodd"/>
    <path d="m952.31 632.25h39.011c1.5312 0 2.8374 0.90384 2.9759 2.0626l3.7026 30.996c0.15978 1.3376-0.99317 2.2885-2.6115 2.2885h-41.232c-1.5479 0-2.9303-0.95082-2.9942-2.2885 0 0-1.4825-30.996-1.4825-30.996-0.0554-1.1587 1.1662-2.0626 2.6308-2.0626" fill-rule="evenodd"/>
    <path d="m953.15 632.95h37.456c1.4662 0 2.7002 0.85549 2.8312 1.9661l3.5059 29.723c0.14432 1.2235-0.93205 2.2279-2.4783 2.2279h-39.5c-1.476 0-2.7906-1.0044-2.8509-2.2279l-1.4663-29.723c-0.0548-1.1106 1.1026-1.9661 2.5022-1.9661" fill="#135883" fill-rule="evenodd"/>
    <path d="m980.46 500.45h30.678c1.2585 0 2.2571 0.56066 2.3943 1.2789l3.6294 19.005c0.1549 0.81121-0.6661 1.3874-1.9804 1.3874h-32.037c-1.2595 0-2.3141-0.57617-2.411-1.3874l-2.2702-19.005c-0.0858-0.71828 0.79116-1.2789 1.9972-1.2789" fill-rule="evenodd"/>
    <path d="m981.14 500.85h29.443c1.1546 0 2.2058 0.5616 2.3363 1.2497l3.455 18.225c0.1407 0.74233-0.7351 1.3174-1.9388 1.3174h-30.694c-1.2036 0-2.2033-0.57509-2.2931-1.3174l-2.2044-18.225c-0.0832-0.68814 0.74107-1.2497 1.8956-1.2497" fill="#135883" fill-rule="evenodd"/>
    <path d="m986.08 545.84h33.525c1.3753 0 2.4774 0.66963 2.6413 1.5277l4.3521 22.79c0.1787 0.93566-0.7026 1.6701-2.1449 1.6701h-35.155c-1.3821 0-2.5515-0.73445-2.6633-1.6701l-2.7223-22.79c-0.1025-0.85808 0.84905-1.5277 2.167-1.5277" fill-rule="evenodd"/>
    <path d="m986.83 546.32h32.178c1.2619 0 2.4216 0.67084 2.5704 1.4556l4.15 21.891c0.1694 0.89336-0.78 1.5856-2.1007 1.5856h-33.678c-1.3206 0-2.4249-0.69228-2.533-1.5856l-2.6478-21.891c-0.0949-0.78477 0.79904-1.4556 2.0609-1.4556" fill="#135883" fill-rule="evenodd"/>
    <path d="m992.84 600.47h36.951c1.5159 0 2.7538 0.85889 2.9443 1.8565l5.3231 27.874c0.2191 1.1478-0.7405 2.049-2.3382 2.049h-38.945c-1.5311 0-2.837-0.90121-2.9742-2.049l-3.3296-27.874c-0.11918-0.99764 0.9152-1.8565 2.3679-1.8565" fill-rule="evenodd"/>
    <path d="m993.68 601.1h35.473c1.3911 0 2.6839 0.81537 2.8648 1.7695l5.0676 26.731c0.2077 1.0956-0.8283 1.9449-2.2912 1.9449h-37.305c-1.4629 0-2.696-0.8493-2.8286-1.9449l-3.2332-26.731c-0.11541-0.95412 0.86093-1.7695 2.252-1.7695" fill="#135883" fill-rule="evenodd"/>
    <path d="m1001.2 667.6h41.162c1.6887 0 3.0884 1.066 3.325 2.3046l6.6458 34.801c0.2752 1.4411-0.7771 2.573-2.5679 2.573h-43.651c-1.7161 0-3.1944-1.132-3.3666-2.573l-4.157-34.801c-0.14796-1.2386 0.99124-2.3046 2.6095-2.3046" fill-rule="evenodd"/>
    <path d="m1002.1 668.38h39.52c1.5498 0 3.0098 1.0122 3.2344 2.197l6.3268 33.374c0.2489 1.3127-0.8785 2.4418-2.518 2.4418h-41.807c-1.6394 0-3.0429-1.1291-3.2016-2.4418l-4.0367-33.374c-0.14331-1.1848 0.93181-2.197 2.4816-2.197" fill="#135883" fill-rule="evenodd"/>
    <path d="m1011.5 480.51h29.477c1.1569 0 2.2054 0.54456 2.3714 1.1767l4.5919 17.487c0.1872 0.71291-0.6098 1.2723-1.8159 1.2723h-30.73c-1.1537 0-2.2569-0.55938-2.393-1.2723l-3.3395-17.487c-0.1207-0.63212 0.731-1.1767 1.8377-1.1767" fill-rule="evenodd"/>
    <path d="m1012.2 480.91h28.294c1.0573 0 2.0984 0.51674 2.2562 1.121l4.3786 16.77c0.1697 0.64984-0.6276 1.2082-1.7279 1.2082h-29.445c-1.1002 0-2.1507-0.55838-2.2758-1.2082l-3.2278-16.77c-0.1163-0.60431 0.6905-1.121 1.7477-1.121" fill="#135883" fill-rule="evenodd"/>
    <path d="m1019.7 522.12h32.092c1.2596 0 2.4148 0.6455 2.6116 1.395l5.4631 20.804c0.2235 0.85107-0.6327 1.519-1.9507 1.519h-33.582c-1.2608 0-2.4772-0.66795-2.6397-1.519l-3.973-20.804c-0.1431-0.74945 0.7741-1.395 1.9789-1.395" fill-rule="evenodd"/>
    <path d="m1020.4 522.6h30.806c1.1511 0 2.2888 0.57855 2.4848 1.3292l5.2092 19.951c0.2025 0.77567-0.6539 1.4423-1.8562 1.4423h-32.175c-1.2022 0-2.3611-0.66666-2.5104-1.4423l-3.84-19.951c-0.1445-0.75065 0.7308-1.3292 1.8819-1.3292" fill="#135883" fill-rule="evenodd"/>
    <path d="m1029.4 571.83h35.215c1.3821 0 2.6679 0.77734 2.905 1.6801l6.596 25.119c0.2832 1.0785-0.6525 1.8449-2.1053 1.8449h-37.014c-1.3896 0-2.7361-0.76636-2.9421-1.8449l-4.7969-25.119c-0.1724-0.90277 0.821-1.6801 2.143-1.6801" fill-rule="evenodd"/>
    <path d="m1030.2 572.4h33.807c1.2633 0 2.528 0.69683 2.7641 1.6012l6.3007 24.132c0.246 0.94192-0.6784 1.7517-2.0036 1.7517h-35.463c-1.325 0-2.6167-0.80976-2.798-1.7517l-4.6447-24.132c-0.1741-0.90436 0.7746-1.6012 2.0378-1.6012" fill="#015c95" fill-rule="evenodd"/>
    <path d="m1041.2 632.25h39.011c1.5311 0 2.9668 0.90384 3.2711 2.0626l8.1394 30.996c0.3513 1.3376-0.6655 2.2885-2.2839 2.2885h-41.232c-1.5479 0-3.0664-0.95082-3.3219-2.2885l-5.9194-30.996c-0.2212-1.1587 0.871-2.0626 2.3356-2.0626" fill-rule="evenodd"/>
    <path d="m1042.1 632.95h37.456c1.3996 0 2.8227 0.85549 3.1126 1.9661l7.7606 29.723c0.3195 1.2235-0.6834 2.2279-2.1594 2.2279h-39.5c-1.4759 0-2.9344-1.0044-3.1699-2.2279l-5.7209-29.723c-0.2137-1.1106 0.8213-1.9661 2.2208-1.9661" fill="#135883" fill-rule="evenodd"/>
    <path d="m691.83 687.69s1.3957-4.1391 1.3957-4.1391h-1.009c-0.57658 0-0.98903-0.0588-0.96904-0.11751 0.02-0.0587 0.35587-0.41098 0.78327-0.82146l0.81365-0.70251h2.9477s-1.6539 4.9487-1.6539 4.9487-1.6784 5.0222-1.6784 5.0222h-2.043s1.413-4.1904 1.413-4.1904" fill="#2f2f51"/>
    <path d="m725.95 589.44s0.0546-0.34751 0.20022-0.78131c0 0 0.23247-0.69272 0.23247-0.69272h-2.4112c-1.2983 0-2.3963-0.0432-2.3814-0.0865 0 0 1.755-1.337 3.8821-2.8819 3.5278-2.6413 3.8293-2.8109 4.2106-2.8533h0.3672l-0.76411 2.2974-0.77029 2.316h1.2339l-0.19942 0.6035s-0.19985 0.60476-0.19985 0.60476h-1.2365l-0.25923 0.77943s-0.25994 0.78154-0.25994 0.78154h-0.80589c-0.43395 0-0.79132-0.0435-0.83872-0.0869m1.1124-3.4993c0.144-0.42908 0.18314-0.72905 0.10723-0.68622-0.15186 0.0857-1.7131 1.245-1.8801 1.3741-0.0908 0.0861 0.0797 0.12916 0.69665 0.12916h0.80203s0.27419-0.81702 0.27419-0.81702" fill="#2f2f51"/>
    <path d="m699.48 653.56c0.43616-0.2681 2.0397-1.3382 3.6199-2.3516 3.7656-2.4402 4.1447-2.7571 4.4087-3.548 0.15808-0.4736 0.12501-0.57874-0.12795-0.84146-0.53819-0.62964-1.8818-0.68205-2.7936 0-0.51584 0.31529-0.61972 0.42045-0.97073 1.0522 0 0-0.21162 0.42185-0.21162 0.42185h-1.7756s0.16261-0.47454 0.16261-0.47454c0.3425-0.99948 1.5003-1.9958 2.9201-2.5712 1.0248-0.41783 2.5366-0.47002 3.4332-0.10451 0.79648 0.26133 1.3694 0.99421 1.4159 1.6763 0.0759 1.4213-0.69931 2.3194-4.182 4.5492l-1.7685 1.1742h4.4s-0.24767 0.74949-0.24767 0.74949-0.24824 0.75124-0.24824 0.75124h-8.6826l0.64819-0.48314" fill="#2f2f51"/>
    <path d="m713.52 620.06c-0.89694-0.24086-1.4178-0.62584-1.6926-1.3464-0.0803-0.33567-0.19264-0.76668-0.12694-0.95805 0 0-0.0151-0.33459-0.0151-0.33459h1.8195l0.0973 0.47811c0.13001 0.57473 0.43931 0.81453 1.1884 0.9105 1.4498 0.14401 3.0229-0.86265 2.6759-1.7706-0.16512-0.47676-0.53947-0.71486-1.5452-0.81005 0 0-0.87574-0.0951-0.87574-0.0951s0.20925-0.61779 0.20925-0.61779c0.19277-0.56915 0.19277-0.56915 0.51636-0.56915 1.6338-0.0474 2.8084-0.85172 2.1412-1.5596-0.25941-0.18851-0.37263-0.23561-0.88883-0.23561-0.7743 0-1.1448 0.14134-1.7082 0.66016 0 0-0.41901 0.47244-0.41901 0.47244h-1.8101l0.16187-0.28355c0.11318-0.14168 0.43625-0.51915 0.7428-0.84905 0.86958-0.84666 1.9955-1.316 3.3475-1.316 1.8671 0 2.9874 0.89237 2.5651 2.165-0.15687 0.47272-0.66908 1.041-1.1364 1.2781-0.24171 0.14234-0.17694 0.14234 0.0679 0.37973 0.1628 0.095 0.3764 0.42777 0.47626 0.71329 0.49884 1.2404-0.90224 2.9181-3.0018 3.5436-0.86391 0.24093-2.0552 0.28914-2.7895 0.14454" fill="#2f2f51"/>
    <path d="m733.22 561.79c-1.0407-0.23634-1.587-0.7084-1.6259-1.4542-0.0925-0.58735-0.0925-0.58735 0.84825-0.58735h0.82319l-2e-3 0.35226c0.0756 0.47038 0.58471 0.70588 1.3638 0.66661 1.0146-0.0393 1.8918-0.54909 2.1271-1.2535 0.36487-1.0921-1.0292-1.4811-3.1489-0.93635-0.27454 0.11687-0.58127 0.15584-0.63996 0.15584-0.11738 0 0.28458-0.6617 0.94797-1.7481 0.62137-0.96633 1.13-1.7754 1.13-1.7754s1.0626-0.0385 2.2871-0.0385h2.274l-0.16593 0.50049s-0.16623 0.50143-0.16623 0.50143h-3.2712s-0.2865 0.50234-0.2865 0.50234c-0.14998 0.27088-0.28702 0.50328-0.30012 0.54203 0 0 0.3381 0.0388 0.73478 0.0775 1.7888 0.0775 2.6897 0.89307 2.2896 2.1014-0.22014 0.6649-0.45465 1.0176-1.069 1.4492-0.55635 0.43233-1.3823 0.78656-2.248 0.90474-0.87936 0.15764-1.2926 0.15764-1.9018 0.0394" fill="#2f2f51"/>
    <path d="m741.8 536.82c-1.2664-0.25126-1.8161-1.1109-1.4538-2.0034 0.30749-0.56959 0.96247-1.1734 3.3729-2.8356l1.9233-1.4063 0.53025 0.24556c0.28731 0.14042 0.53076 0.24578 0.51905 0.28092 0.0557 0-0.54276 0.45713-1.2776 0.9856-0.72445 0.49421-1.3265 0.95396-1.3384 0.98936 0 0 0.1559 0.0354 0.37967 0.0354 0.50348 0 1.3482 0.31885 1.6456 0.6026 0.94763 1.0312-0.32711 2.6752-2.3734 3.0699-0.65595 0.10774-1.457 0.14366-1.9276 0.0359m2.2558-1.1824c0.9301-0.42865 1.0236-1.2127 0.22187-1.4972-0.48869-0.21318-1.2531-0.10661-1.81 0.21337-0.40903 0.21353-0.48934 0.28475-0.59838 0.60547-0.10918 0.32111-0.0773 0.39252 0.23119 0.64262 0.30875 0.25033 0.40913 0.28611 0.91529 0.28611s0.63066-0.0358 1.04-0.25036" fill="#2f2f51"/>
    <path d="m748.01 513.71c-0.24682-0.0656-0.48232-0.16406-0.48232-0.16406-0.0538 0 1.1543-1.0148 2.5737-2.1881l2.6048-2.1691-1.8573-0.0322h-1.8681l0.15477-0.45081 0.15449-0.45h3.0368c1.6516 0 3.0262 0.0321 3.0262 0.0321-0.0425 0.1285-6.6449 5.5863-6.7527 5.5863-0.0539 0-0.30085-0.0657-0.5904-0.16417" fill="#2f2f51"/>
    <path d="m756.7 492.85c-0.54739-0.0603-0.73334-0.12058-1.1569-0.39167-0.92802-0.60133-0.70099-1.5604 0.59324-2.1876l0.54348-0.23853-0.20575-0.14896c-0.80131-0.65433-0.046-1.662 1.6284-2.0758 0.94818-0.23608 2.0929-0.14758 2.8017 0.17721 0.17489 0.0887 0.36161 0.29566 0.45602 0.47323 0.17717 0.23696 0.18903 0.35553 0.0296 0.6819-0.14981 0.29709-0.24056 0.41603-0.57607 0.65408l-0.44843 0.2681 0.21696 0.11925c0.35133 0.17899 0.57239 0.59714 0.55641 0.95615-0.11521 0.65956-1.0661 1.3511-2.1784 1.592-0.61831 0.15074-1.6713 0.21106-2.2602 0.12058m2.0065-0.9029c0.80161-0.2402 1.1676-0.71989 0.87602-1.079-0.33248-0.38845-1.1656-0.50785-2.0067-0.29886-0.85208 0.23906-1.3136 0.68795-1.0345 1.0777 0.21781 0.4204 1.3526 0.57073 2.1652 0.30021m0.42308-2.3318c0.77762-0.17843 1.1316-0.62392 0.6776-0.95009-0.32975-0.23694-1.1993-0.23694-1.74 0-0.61261 0.2965-0.55907 0.74193 0.13941 0.95009 0.38013 0.0893 0.48271 0.0893 0.92303 0" fill="#2f2f51"/>
    <path d="m1115.4 686.02l1.2085 4.1697h1.019c0.5822 0 1.0365 0.0599 1.054 0.1199 0.018 0.06-0.096 0.41996-0.2641 0.84043 0 0-0.3727 0.72203-0.3727 0.72203h-2.9917l-1.4405-5.0222s-1.4194-4.9487-1.4194-4.9487h2.0132l1.1937 4.1188" fill="#2f2f51"/>
    <path d="m1084.3 582.19c0.012 0.0424 0.1712 0.38168 0.2814 0.76387l0.2084 0.72331h2.3933c1.2886 0 2.3932 0 2.4058 0.0426 0.013 0.0426-0.8991 1.3239-2.0353 2.9121-1.8955 2.6376-2.0811 2.8549-2.4529 2.8549 0 0-0.3596 0.0435-0.3596 0.0435l-0.6669-2.3383-0.6615-2.3195h-1.2299l-0.1694-0.59829-0.169-0.59705h1.2273s-0.2184-0.7658-0.2184-0.7658-0.2178-0.76376-0.2178-0.76376h0.7955c0.4284 0 0.7956 0 0.869 0.0424m1.0566 3.4536c0.1361 0.47224 0.2845 0.77315 0.3214 0.68714 0.098-0.086 0.9454-1.2014 1.0187-1.3726 0.036-0.0856-0.1479-0.0856-0.7629-0.0856h-0.7994l0.2222 0.77107" fill="#2f2f51"/>
    <path d="m1107.4 645.36c-0.2626 0.2615-1.1792 1.3097-2.1142 2.3087-2.2363 2.4317-2.4038 2.8033-2.1905 3.548 0.1373 0.4796 0.2366 0.58628 0.6565 0.85313 0.956 0.69485 2.3315 0.69485 2.8167 0 0.3186-0.3202 0.3561-0.42686 0.3065-1.0661l-0.04-0.37228h1.7822l0.1256 0.42549c0.2991 1.0128-0.2265 2.0289-1.2928 2.6186-0.7703 0.42957-2.2711 0.48331-3.4127 0.10734-0.9719-0.26828-2.0112-1.0183-2.4833-1.7131-0.9563-1.4383-0.7323-2.3407 1.367-4.559l1.0444-1.1034h-4.3578l-0.2076-0.73348s-0.2072-0.73179-0.2072-0.73179h8.5595s-0.3519 0.41796-0.3519 0.41796" fill="#2f2f51"/>
    <path d="m1095 611.88c1.0345 0.23461 1.7893 0.61038 2.5132 1.3162 0.2911 0.32996 0.6751 0.75471 0.731 0.94369l0.2413 0.3783h-1.8108s-0.4109-0.52004-0.4109-0.52004c-0.4885-0.5663-0.9445-0.80195-1.7462-0.89615-1.5247-0.14126-2.4537 0.89615-1.5499 1.795 0.4598 0.47414 0.9679 0.664 2.032 0.75898l0.9487 0.14253 0.1662 0.57076c0.1666 0.57183 0.1805 0.61954-0.1441 0.61954-1.6235 0-2.2862 0.85992-1.1826 1.5304 0.3947 0.23984 0.5388 0.28783 1.06 0.28783 0.7816 0 1.0513-0.19192 1.2878-0.71904 0 0 0.1342-0.43061 0.1342-0.43061h1.8203l0.01 0.23915c-0.023 0.14358-0.1047 0.52679-0.201 0.86251-0.3178 0.91309-1.1555 1.3948-2.5262 1.3948-1.8931 0-3.6029-0.96259-3.9576-2.2094-0.1496-0.52596 0.012-1.0987 0.3336-1.337 0.1674-0.0953 0.089-0.1429-0.2898-0.33334-0.2353-0.14274-0.6542-0.47555-0.9296-0.76053-1.2551-1.2318-0.8834-2.8821 0.8108-3.4928 0.7052-0.23453 1.8505-0.28142 2.664-0.14074" fill="#2f2f51"/>
    <path d="m1078.6 555.29c1.1759 0.23098 2.0126 0.69353 2.5101 1.3888 0.4643 0.58079 0.4643 0.58079-0.4722 0.58079h-0.8194s-0.2078-0.30991-0.2078-0.30991c-0.3697-0.46419-1.0216-0.696-1.7699-0.65738-0.9823 0.0386-1.5393 0.54126-1.3394 1.2387 0.3121 1.0885 1.9507 1.4783 3.7171 0.89383 0.2118-0.0778 0.4821-0.15566 0.5408-0.15566 0.1173 0 0.136 0.66217 0.1751 1.7954-0.01 0.98074-0.012 1.7679-9e-4 1.8073h-4.604s-0.1455-0.51196-0.1455-0.51196l-0.1452-0.51101h3.2994s-0.03-0.51005-0.03-0.51005c-0.01-0.23509-0.03-0.50911-0.03-0.50911-0.011-0.0391-0.3755-0.0782-0.7871-0.0782-1.8452-0.0782-3.2647-0.93715-3.6068-2.1429-0.1869-0.65897-0.1688-1.0072 0.1778-1.4322 0.2878-0.42434 0.8998-0.73254 1.6721-0.8865 0.7831-0.11542 1.1913-0.11542 1.8663 0" fill="#2f2f51"/>
    <path d="m1071.3 530.64c1.4084 0.24563 2.4831 1.0543 2.6985 1.9715 0.055 0.56603-0.2146 1.1688-1.576 2.8425l-1.0481 1.4329-0.692-0.25133c-0.379-0.1435-0.6912-0.25108-0.7015-0.28693-0.056 0 0.2606-0.46561 0.6687-1.0018 0.4073-0.53511 0.7326-0.96242 0.7223-0.99799-0.01-0.0356-0.1785-0.0356-0.4029-0.0356-0.5046 0-1.5493-0.31993-2.0327-0.63947-1.5686-0.99164-1.3127-2.6477 0.4807-2.9988 0.5821-0.10521 1.3513-0.14027 1.883-0.0351m-1.5034 1.16c-0.66 0.42309-0.2695 1.2006 0.7072 1.4838 0.611 0.17722 1.3181 0.10632 1.6728-0.21249 0.2735-0.21232 0.3087-0.28306 0.2156-0.60113-0.1033-0.35296-0.1694-0.38823-0.6322-0.63498-0.4623-0.24652-0.5841-0.28172-1.0861-0.28172-0.5021 0-0.6035 0.0352-0.8773 0.24649" fill="#2f2f51"/>
    <path d="m1066.4 508.39c0.2949 0.0964 0.59 0.19285 0.59 0.19285 0.053 0-0.5058 0.99881-1.1804 2.1638l-1.2445 2.1827s1.8918 0.0327 1.8918 0.0327h1.8824s0.1357 0.45855 0.1357 0.45855l0.1359 0.4594h-3.0711c-1.6703 0-3.0805-0.0328-3.0805-0.0328-0.037-0.13133 3.1569-5.5856 3.2635-5.5856 0.053 0 0.3386 0.0642 0.6772 0.12849" fill="#2f2f51"/>
    <path d="m1058.8 487.72c0.5791 0.059 0.8007 0.11808 1.3899 0.38399 1.3001 0.59197 1.6845 1.5422 0.7918 2.1678l-0.392 0.23877 0.3096 0.17923c1.2229 0.65833 1.1039 1.6492-0.32 2.0708-0.8074 0.24126-2.0126 0.18092-2.9422-0.18078-0.2322-0.0903-0.5503-0.30101-0.7564-0.48143-0.326-0.24035-0.4032-0.33043-0.4455-0.66039-0.042-0.32952-0.025-0.44923 0.1726-0.65859 0 0 0.2744-0.29875 0.2744-0.29875l-0.2909-0.1194c-0.4618-0.17899-0.9395-0.59611-1.1433-0.95306-0.2875-0.65302 0.2436-1.3043 1.1896-1.5702 0.5194-0.14759 1.5238-0.20661 2.1624-0.11808m-1.43 0.88707c-0.6485 0.23711-0.7174 0.71204-0.2051 1.0689 0.5731 0.38715 1.4802 0.5064 2.1896 0.29775 0.6999-0.23823 0.8767-0.68428 0.3538-1.0702-0.4796-0.4149-1.699-0.5629-2.3383-0.29643m1.0286 2.3219c-0.6683 0.17955-0.7365 0.659-0.084 0.95914 0.4816 0.24038 1.358 0.24038 1.7519 0 0.4273-0.30014 0.09-0.74965-0.7339-0.92922-0.446-0.11964-0.5488-0.11964-0.9343-0.0299" fill="#2f2f51"/>
    <path d="m722.53 727.3c-2.1914-0.39977-3.3749-2.1933-2.7804-4.3073 0.12958-0.46077 0.46678-1.118 0.65357-1.5117 0.61947-0.85161 2.0698-1.9622 3.2774-2.4836 0.75482-0.26042 1.0003-0.3255 2.2136-0.3255 1.2134 0 1.4232 0.0651 2.0175 0.39064 0.32649 0.19548 0.67077 0.32585 0.67077 0.32585 0.0759 0 0.11113-0.13037 0.14633-0.2607 0.14622-0.26052 0.23965-0.32562 1.2432-0.39071h0.986l-1.119 4.1899-1.1324 4.2398h-1.0745c-0.99775 0-1.0745 0-0.98455-0.33305l0.0719-0.26622-0.93383 0.33281c-1.1246 0.46645-2.3127 0.59983-3.2557 0.39977m3.247-2.0607c0.87309-0.39748 1.8292-1.3892 2.0606-2.2466 0.46105-1.7084-1.0853-3.017-3.1105-2.5596-1.5352 0.32712-2.9444 1.8358-2.9693 3.021-0.0743 1.9178 1.8505 2.7144 4.0192 1.7852" fill="#2f2f51"/>
    <path d="m773.17 728.57c-0.35706-0.13378-0.85397-0.33436-1.057-0.46801l-0.32903-0.26717-0.0829 0.40082-0.0968 0.4682-1.0629-0.0669-0.98577-0.0669s1.1063-5.6421 1.1063-5.6421l1.1784-5.6188h2.1194l-0.36267 1.7545-0.36449 1.7632 0.99349-0.39259c1.3989-0.52276 2.9314-0.58806 4.0555-0.13076 1.0624 0.39244 2.0347 1.638 2.2353 2.5586 0.59208 2.8426-2.1947 5.7079-5.6189 5.9087-0.76912 0-1.2939-0.0669-1.728-0.20077m3.1433-1.8684c0.99999-0.39912 1.9904-1.5275 2.1611-2.388 0.17027-0.85842-0.37001-1.9778-1.2057-2.3721-1.0498-0.45942-2.2948-0.32822-3.4467 0.46001-0.79481 0.52644-1.1327 1.0537-1.3238 1.9782-0.26017 1.2586 0.37741 2.2553 1.6901 2.5882 0.52359 0.0666 1.5345 0 2.125-0.26632" fill="#2f2f51"/>
    <path d="m824.57 727.17c-1.6253-0.46618-2.8142-1.8611-2.9197-3.3167-0.25283-3.6784 4.5094-6.3475 8.3916-4.7224 0.71786 0.32591 1.9387 1.5017 1.8302 1.7635-0.0842 0.0655-0.42119 0.32755-0.82636 0.52422l-0.81101 0.39367-0.61051-0.59034c-0.5502-0.45849-0.90528-0.6548-1.4967-0.78561-3.1903-0.58806-5.7306 2.4279-3.7069 4.4087 0.67704 0.66272 1.561 0.92815 2.6507 0.79541 0.85089-0.0664 1.4974-0.33164 2.2621-0.9278l0.59383-0.463 0.71472 0.39682c0.34941 0.26479 0.70729 0.46351 0.70729 0.46351 0.13665 0.13254-0.81318 0.99527-1.4765 1.3942-1.4141 0.86579-3.6753 1.1326-5.3027 0.6658" fill="#2f2f51"/>
    <path d="m875.51 728.63c-1.3545-0.4681-2.1565-1.1358-2.7642-2.4009-0.35235-0.46498-0.3347-0.73041-0.25987-1.8563 0.0965-1.4518 0.44948-2.1754 1.5758-3.0944 1.0433-0.85115 1.8198-1.1126 3.3437-1.178 1.3717-0.0653 1.4476-0.0653 3.1517 0.71941 0.0761 0 0.19547-0.78473 0.24589-1.6981l0.10047-1.8196h1.968s-0.29456 5.6188-0.29456 5.6188-0.29929 5.709-0.29929 5.709h-0.99979c-0.9998 0-0.9998 0-0.98133-0.33442 7e-3 -0.13368-0.0584-0.33411-0.0584-0.33411s-0.47223 0.20043-0.86785 0.40097c-0.70728 0.26756-1.0956 0.33449-2.0995 0.40142-0.76921 0-1.4574-0.0669-1.7609-0.13386m3.1033-1.8022c1.1038-0.53225 1.8414-1.3955 1.8999-2.455 0.10196-1.8467-2.0327-3.1599-4.0597-2.3726-0.77831 0.26284-1.4254 0.85493-1.6877 1.3821-0.25845 0.46188-0.32583 1.5199-0.12569 1.9837 0.12378 0.46446 0.98961 1.3286 1.5143 1.5284 0.67847 0.19983 1.8296 0.19983 2.4589-0.0666" fill="#2f2f51"/>
    <path d="m927.26 727.3c-1.4613-0.33317-2.6175-1.1316-3.3145-2.392-0.30916-0.5955-0.38731-0.92591-0.39241-1.9153-7e-3 -1.3805 0.29347-2.1015 1.3516-3.0824 2.9328-2.6672 8.4167-0.84786 8.4863 2.819l0.0138 0.72475h-7.7877l0.0796 0.39593c0.31352 0.92557 1.547 1.8536 2.6193 1.8536 1.2255 0 2.2887-0.59684 2.9627-1.5233 0 0 0.29813-0.46232 0.29813-0.46232l0.6156 0.26411c1.1561 0.5288 1.1561 0.5288 0.86124 1.1246-0.44618 0.7296-1.5046 1.5938-2.42 1.9267-0.83938 0.33324-2.5268 0.46662-3.3735 0.26656m3.6749-5.5566c-0.0153-0.98318-2.5339-1.7024-3.8197-1.1141-0.45441 0.19635-1.209 0.91721-1.2073 1.1141 5.5e-4 0.0657 1.0677 0.1313 2.5151 0.1313 1.9807 0 2.5139 0 2.5119-0.1313" fill="#2f2f51"/>
    <path d="m978.23 725.37l-0.27502-3.3658h-1.2192l0.0131-0.78734s-0.0682-0.85099-0.0682-0.85099 0.60287-0.0654 0.60287-0.0654h0.5321l-0.064-0.78358c-0.11171-1.3671 0.36525-2.0162 1.5658-2.1459 0.74594-0.12964 1.8981 0.0648 1.915 0.25943 0.0113 0.12978 0.0927 0.19469 0.16841 0.19469 0.0758 0 0.17984 0.32472 0.21957 0.77983 0.0398 0.4557 0.0682 0.78155-8e-3 0.78155 0 0-0.30932-0.0652-0.62421-0.19554-1.0143-0.32568-1.1605-0.26057-1.0998 0.45645 0 0 0.0553 0.6531 0.0553 0.6531h0.91217l0.84185 0.0654 0.1503 0.85099 0.0687 0.78734h-1.8287s0.28513 3.3658 0.28513 3.3658l0.28784 3.3978h-2.1538s-0.27764-3.3978-0.27764-3.3978" fill="#2f2f51"/>
    <path d="m1029.2 728.5c-1.5313-0.46792-2.1392-0.93525-3.105-2.2671l-0.5582-0.66407h1.1487c1.1487 0 1.1487 0 1.5254 0.46471 0.5611 0.66495 1.6093 0.99788 2.8371 0.99788 1.6114 0 2.5243-0.53255 2.5956-1.5289l-0.01-0.53027-0.351 0.19876c-0.2086 0.13256-0.713 0.33151-1.2282 0.4642-2.2056 0.59772-4.9712-0.4642-6.2613-2.4468-0.5847-0.85571-0.818-2.4301-0.4881-3.28 0.3291-0.84786 1.1781-1.7587 2.0183-2.2132 0.6419-0.25947 0.9348-0.32431 2.146-0.32431 1.2869 0 1.514 0 2.2466 0.32431 0.4854 0.19473 0.8195 0.38956 0.8953 0.38956 0 0-0.021-0.1299-0.052-0.32466-0.052-0.32437 0.024-0.32437 1.008-0.32437h0.9842l0.6127 4.2401c0.62 4.2913 0.6308 4.3578 0.4211 4.9562-0.4081 0.7994-0.8707 1.2666-1.7288 1.6674-0.5621 0.33442-0.8591 0.40135-2.3205 0.40135-1.2203 0.0669-1.769 0-2.3381-0.20074m2.9472-4.718c0.7116-0.32991 1.12-1.1205 1.0599-1.9749-0.07-0.91789-0.4028-1.5721-1.1697-2.0946-2.0663-1.5628-5.0719-0.39135-4.8017 1.8977 0.1689 1.1172 1.1485 2.0398 2.4977 2.3699 0.5553 0.13212 1.7677 0.0661 2.4138-0.1981" fill="#2f2f51"/>
    <path d="m1077 722.99s-1.2408-5.6199-1.2408-5.6199h1.9682l0.3923 1.7548 0.3943 1.7635 0.5352-0.32725c0.9464-0.52295 1.8286-0.65357 2.861-0.45763 1.185 0.19606 2.1574 0.78488 2.8268 1.7028 0.6252 0.72287 0.6405 0.78865 1.3477 3.8281l0.7902 3.0656h-1.0767l-1.0152-0.0669-0.766-2.9986c-0.6688-2.5786-0.8509-3.0395-1.14-3.3025-0.7899-0.78808-2.1605-0.78808-2.9878-0.0657-0.7528 0.7238-0.7849 0.92145-0.2102 3.8331l0.5045 2.6008h-1.9229s-1.2606-5.71-1.2606-5.71" fill="#2f2f51"/>
    <path d="m794.34 471.83c1.4366 0.16553 2.3238 0.91188 2.0867 1.7996-0.052 0.19464-0.17594 0.47298-0.31988 0.64014-0.34532 0.36261-1.2185 0.83764-1.9753 1.0615-0.4782 0.11202-0.63511 0.14004-1.4313 0.14004-0.79614 0-0.93769-0.028-1.3467-0.16804-0.22542-0.084-0.45853-0.13993-0.45853-0.13993s-0.0653 0.056-0.0809 0.11194c-0.0809 0.11199-0.13846 0.14-0.74338 0.16801h-0.69663l0.50225-1.7859 0.49841-1.7722h0.69129c0.64192 0 0.69129 0 0.65291 0.13796l-0.0307 0.11043 0.63109-0.13803c0.69527-0.1931 1.4015-0.24824 2.0207-0.16553m-1.9647 0.85651c-0.54074 0.16614-1.1019 0.58202-1.2024 0.94306-0.20153 0.72377 0.88558 1.2821 2.1815 1.0865 0.98178-0.13958 1.8003-0.78057 1.7371-1.281-0.0796-0.80394-1.3736-1.1358-2.7161-0.74858" fill="#2f2f51"/>
    <path d="m827.62 471.31c0.23556 0.055 0.51503 0.13761 0.65206 0.19268l0.27415 0.11018 0.0328-0.16525 0.0382-0.19264 0.63561 0.0275 0.685 0.0275-0.45972 2.3507-0.42011 2.403h-1.3951s0.15025-0.75711 0.15025-0.75711 0.14977-0.75464 0.14977-0.75464l-0.62942 0.16748c-0.88964 0.22351-1.8894 0.25146-2.6942 0.0559-0.66094-0.16753-1.3451-0.69723-1.5116-1.0868-0.4921-1.1923 1.1389-2.3785 3.3749-2.4611 0.49301 0 0.83262 0.0275 1.1174 0.0825m-1.9331 0.77171c-0.62688 0.16571-1.2183 0.63585-1.2928 0.99602-0.0746 0.36073 0.3236 0.83331 0.88459 1.0003 0.655 0.19501 1.5099 0.13927 2.2218-0.19485 0.49056-0.22248 0.68337-0.44476 0.76046-0.83321 0.10442-0.52615-0.35673-0.94069-1.2181-1.0787-0.34006-0.0276-0.98768 0-1.356 0.1104" fill="#2f2f51"/>
    <path d="m860.54 471.89c1.0619 0.19317 1.8787 0.77366 2.0009 1.3834 0.30335 1.5593-2.7274 2.7076-5.3227 2.0067-0.47836-0.13992-1.304-0.64292-1.2389-0.75456 4e-3 -0.0279 0.26747-0.13946 0.52715-0.2231l0.51908-0.16718 0.41274 0.25082c0.37099 0.19527 0.55847 0.27901 0.94846 0.33485 2.1537 0.25146 3.7059-1.0309 2.3255-1.8634-0.45903-0.27684-1.0379-0.38748-1.7374-0.33216-0.59705 0.0277-0.95804 0.13834-1.4368 0.38757l-0.37278 0.19403-0.47231-0.16632c-0.23222-0.11082-0.46815-0.19389-0.46815-0.19389-0.0913-0.0554 0.45266-0.41494 0.87065-0.5807 0.93753-0.35875 2.3344-0.46902 3.4446-0.27601" fill="#2f2f51"/>
    <path d="m893.65 471.28c0.82769 0.19266 1.3555 0.46818 1.8213 0.99257 0.18751 0.19349 0.23115 0.30413 0.20647 0.77496-0.032 0.61073-0.29606 0.91669-0.96207 1.3067-0.66558 0.36273-1.1688 0.47446-2.1642 0.5024-0.89624 0.0279-0.99564 0.0279-2.1174-0.30715-0.0497 0-0.071 0.33509-0.0959 0.72665l-0.05 0.7851h-1.2955l0.15973-2.403 0.15808-2.3783h0.64107c0.59176 0 0.64107 0 0.63231 0.1376-4e-3 0.0551-9e-3 0.13768 0.0406 0.13768 0 0 0.25192-0.0826 0.55308-0.16521 0.45069-0.11007 0.69893-0.13758 1.3416-0.16509 0.49307 0 0.93519 0.0275 1.1309 0.055m-2.0181 0.74402c-0.70537 0.22092-1.1236 0.58035-1.1518 1.0235-0.0495 0.77757 1.3547 1.3346 2.6648 1.0002 0.45275-0.11135 0.91312-0.36169 1.0742-0.58398 0.10984-0.19434 0.13438-0.63792 0.0462-0.83172-0.13756-0.19363-0.66088-0.55281-1.0018-0.63562-0.43964-0.0828-1.1804-0.0828-1.6316 0.0276" fill="#2f2f51"/>
    <path d="m926.26 471.83c0.9402 0.13794 1.6868 0.46931 2.1413 0.99495 0.20262 0.24941 0.25476 0.38809 0.26267 0.80462 0.0111 0.5844-0.18172 0.89111-0.86983 1.31-1.8738 1.1488-5.5154 0.36365-5.5234-1.1988l-2e-3 -0.30568h5.103l-0.10175-0.16656c-0.15466-0.38818-1.0012-0.7757-1.6934-0.7757-0.74165 0-1.481 0.24905-1.9231 0.63699l-0.19655 0.19422-0.3475-0.111c-0.744-0.22185-0.79349-0.22185-0.54746-0.47116 0.29486-0.30436 0.93473-0.66354 1.5263-0.80154 0.5418-0.13791 1.6766-0.19305 2.1714-0.11034m-2.3992 2.3283c4e-3 0.41823 1.6463 0.72542 2.4877 0.47406 0.29681-0.0837 0.78858-0.39048 0.78727-0.47406-4.3e-4 -0.0279-0.69543-0.0557-1.6381-0.0557-1.2404 0-1.6373 0-1.6368 0.0557" fill="#2f2f51"/>
    <path d="m959.36 472.63l0.12114 1.4157h0.7937s0.0292 0.33437 0.0292 0.33437-0.018 0.36278-0.018 0.36278l-0.34538 0.0279h-0.3975s0.0287 0.33542 0.0287 0.33542c0.0503 0.58815-0.27432 0.86875-1.0667 0.92491-0.49362 0.0562-1.2478-0.0281-1.2546-0.11231-5e-3 -0.0561-0.0566-0.0842-0.10637-0.0842-0.0498 0-0.11083-0.14026-0.12652-0.33648-0.0157-0.19605-0.0269-0.33598 0.0229-0.33598 0 0 0.20117 0.028 0.40463 0.084 0.65813 0.13998 0.75533 0.11198 0.72991-0.19584l-0.0231-0.27948h-0.54656l-0.59849-0.0279s-0.0291-0.36278-0.0291-0.36278l-0.0764-0.33437h1.1906s-0.1169-1.4157-0.1169-1.4157l-0.11618-1.4071h1.3805l0.12047 1.4071" fill="#2f2f51"/>
    <path d="m992.53 471.34c0.96783 0.19271 1.3442 0.38558 1.9271 0.93754l0.34143 0.27647h-0.74173c-0.74168 0-0.74168 0-0.97022-0.19357-0.34026-0.27624-1.0041-0.41424-1.7942-0.41424-1.0371 0-1.6456 0.22084-1.7312 0.63547l-0.016 0.22145 0.2348-0.0831c0.13999-0.0554 0.47355-0.13838 0.81123-0.1937 1.4444-0.24881 3.1955 0.1937 3.973 1.0257 0.35598 0.36147 0.46448 1.0303 0.22515 1.3934-0.18996 0.36365-0.82373 0.75592-1.3901 0.9523-0.4306 0.1123-0.62548 0.14038-1.4226 0.14038-0.84699 0-0.99646 0-1.4662-0.14038-0.26179-0.0842-0.52349-0.16834-0.57328-0.16834 0 0 8e-3 0.0561 0.0212 0.14028 0.0212 0.14036-0.0286 0.14036-0.6763 0.14036h-0.64765l-0.2194-1.8181c-0.2177-1.8039-0.22179-1.8315-0.061-2.0802 0.29636-0.33109 0.61296-0.52401 1.1801-0.68924 0.37368-0.1376 0.61604-0.16511 1.5036-0.16511 0.78466-0.0275 1.1341 0 1.4923 0.0825m-2.0675 1.9621c-0.47423 0.13881-0.77069 0.4723-0.76568 0.83412 9e-3 0.39028 0.20038 0.66946 0.68159 0.89305 1.2971 0.67205 3.3079 0.16783 3.202-0.80948-0.0753-0.4732-0.68217-0.86217-1.546-1.0009-0.35527-0.0555-1.1432-0.0277-1.5719 0.0832" fill="#2f2f51"/>
    <path d="m1027.5 473.63l0.5593 2.4027h-1.2953l-0.1741-0.75702s-0.1736-0.75456-0.1736-0.75456l-0.3653 0.13955c-0.6446 0.22345-1.2283 0.27935-1.8933 0.19551-0.7642-0.0838-1.3666-0.33506-1.8006-0.72534-0.3158-0.30619-0.3219-0.33401-0.6532-1.6099l-0.2801-1.2689h0.641l0.6965 0.0275 0.3271 1.2414c0.2915 1.0813 0.3847 1.2759 0.5584 1.3872 0.4224 0.33417 1.3654 0.33417 1.891 0.0278 0.5744-0.30593 0.6048-0.3893 0.374-1.6086l-0.198-1.0753h1.2327l0.5535 2.378" fill="#2f2f51"/>
   </g>
   <g transform="translate(-165.01 -446.95)">
    <path d="m545.42 406.46 96.623-269.33h305.9l83.863 269.33z" fill="none" stroke="#eff2f3" stroke-width="1px"/>
    <path d="m545.6 407.31 2.2218 3.8265 482.01-0.0736 1.8093-3.7407z" fill="#b4bcbf" stroke="#b1bec2" stroke-width="1.018px"/>
   </g>
  </g>
 </g>
</svg>
