<?xml version="1.0" encoding="UTF-8"?>
<svg enable-background="new 0 0 500 500" viewBox="0 0 500 500" xmlns="http://www.w3.org/2000/svg">
 <defs>
  <linearGradient id="g" x1="98.5" x2="400" gradientUnits="userSpaceOnUse">
   <stop stop-color="#8e6443" offset=".3558"/>
   <stop stop-color="#bb9a93" offset=".6503"/>
  </linearGradient>
  <linearGradient id="f" x1="110.81" x2="310.11" y1="297.5" y2="91.122" gradientUnits="userSpaceOnUse">
   <stop stop-color="#6e222e" offset="0"/>
   <stop stop-color="#55362a" offset=".4294"/>
   <stop stop-color="#55362a" offset=".7546"/>
   <stop stop-color="#924f3a" offset="1"/>
  </linearGradient>
  <linearGradient id="e" x1="179.08" x2="255.05" gradientUnits="userSpaceOnUse">
   <stop stop-color="#572c26" offset=".0123"/>
   <stop stop-color="#572c26" stop-opacity=".36" offset="1"/>
  </linearGradient>
  <linearGradient id="d" x1="142.07" x2="361.75" gradientUnits="userSpaceOnUse">
   <stop stop-color="#7c574b" offset="0"/>
   <stop stop-color="#cd7e74" stop-opacity=".64" offset=".2331"/>
   <stop stop-color="#a47365" offset=".4356"/>
   <stop stop-color="#fbc5ba" offset=".8589"/>
   <stop stop-color="#fff2eb" offset=".9816"/>
  </linearGradient>
  <linearGradient id="c" x1="159.98" x2="358.5" gradientUnits="userSpaceOnUse">
   <stop stop-color="#523327" offset="0"/>
   <stop stop-color="#ac8265" offset=".4724"/>
   <stop stop-color="#b59792" offset=".5644"/>
   <stop stop-color="#a07055" offset=".6994"/>
   <stop stop-color="#855d57" offset="1"/>
  </linearGradient>
  <linearGradient id="b" x1="327.39" x2="327.39" y1="381.5" y2="21.792" gradientUnits="userSpaceOnUse">
   <stop stop-color="#e4e0e3" offset="0"/>
   <stop stop-color="#e4e0e3" offset=".3681"/>
   <stop stop-color="#e4e0e3" offset="1"/>
  </linearGradient>
  <linearGradient id="a" x1="374.33" x2="395.15" gradientUnits="userSpaceOnUse">
   <stop stop-color="#b84d50" offset="0"/>
   <stop stop-color="#b84d50" stop-opacity=".53" offset=".8344"/>
  </linearGradient>
  <radialGradient id="h" cx="209.18" cy="197.98" r="8.7689" gradientUnits="userSpaceOnUse">
   <stop offset="0"/>
   <stop stop-color="#001313" offset=".362"/>
   <stop stop-color="#004241" offset=".7914"/>
   <stop stop-color="#1e3838" offset="1"/>
  </radialGradient>
  <radialGradient id="i" cx="319.38" cy="203.72" r="8.6262" gradientUnits="userSpaceOnUse">
   <stop offset="0"/>
   <stop stop-color="#001313" offset=".362"/>
   <stop stop-color="#004241" offset=".7914"/>
   <stop stop-color="#1e3838" offset="1"/>
  </radialGradient>
 </defs>
 <path d="m243 26.333s-33.333 2.667-73.333 18.667-59.333 57.333-64 70-6 33.333-6 40.667-1.333 38-4.667 44c-3-1.167-8.5-4.667-16.5 8.333-3 11-2 13-1 22 1 12.5 9 39.5 23.5 51.5 6.5 9.5 8 10 15 12.5 1.5 13 6 46.5 27.5 64 9.5 11 19.5 22.5 27 27 8 8 35.5 27.5 62 28.5s40.5-5.5 52-13 31-22 49-49c8.5-14 13-20.5 16.5-50 4.5-3 4.5-6 6-9 4.5-2 7-7.5 14.5-25.5 3.5-6.5 6.5-15 6.5-15s-1-6-2.5-17.5c2.5-5 3.5-7.5 3.5-7.5s-0.5-16.5-14-18c-2 1-4.5 2.5-4.5 2.5s1.5-8.5 4.5-14c1.5-10.5 5.5-50-11.5-98.5-12.5-23.5-38-43.5-56-54s-35-16.833-53.5-18.667z" fill="#4f4f4f"/>
 <path d="m219,34.5c0,0-18,10.5-19,13 5-1 9.5-4 9.5-4s-5,7-17,10c-6.5,4-13,8.5-7.5,8s18-1 21,.5c4-5 24-20 39.5-4 3.5,10.5 2,20-1,21.5s-13.5,6-29-1.5c-7.5-3-36,12-30.5,39-8,8.5-14.5,8-8.5,34 3,7.5 14.5,16.5 1.5,33-7,2-24.5,5-23,9 4.5,1 5,4 5,4s-8,.5-8.5,5.5c-6,.5-12.5,0-12.5,0s-6,7.5-2,16.5c.5,9-3.5,14-1.5,15.5 5.5-.5 14.5-1 16,10.5-2.5,6-26,49 5.5,76 1.5,5 2.5,8.5 5.5,11.5s5,5.5 5,5.5 0,31 10,46c-9-4-17.5-7-30.5-24-11-11.5-27-25-30-62.5-7-5.5-5,1-15.5-16.5-5.5-4.5-11-10-16.5-22-3.5-9.5-6.5-12.5-6-30-2-5.5-4-9-1-19 2-6 6.5-13 15-10 4,.5 6.5,1.5 6.5,1.5s-2.5-16 1-54.5c2.5-17 8.5-28 10-34 6-5.5 24.5-14 40-34 7.5-7.5 18-12.5 23.5-17-6.5.5-19,5-19,5s9.5-14 38-24.5c10-2 18-4.5 26-8z" fill="#4f4f4f" opacity=".78"/>
 <path d="m189.333,310.333c0,0 20.667,21 30,25 10,1 16-.999 20-.666s11.001,1.334 13.334,4c4,.333 9-3.333 11.333-3s4.001,15.999-.333,16.666-11.666-.666-13,.334c1.333,2.666 6,12.334-5,16-8.334-.334-15.667-6.667-15.667-6.667s-7-8.333-11.333-8-20.333-6.999-25.333-21.333-12.001-14.334-4.001-22.334" fill="#4f4f4f" opacity=".43"/>
 <path d="m161.33 309.33s1.333-6 11-7 16.333-5 23.667-6.333 23-1.333 28.333-2.333 7-3.001 8-5.334 1.667-7.332-3-9.666-6.333-3.001-7-5.334c-2.667-2.333-6-4-6-4s-2 3.668-7.333 4.334-8-1-14 2.333c-5.667 2.333-6.667 3.333-10 4s-6 1.667-6.667 3.667c-3.667 2.333-8.333 3.667-9.333 2 1-2.667 5-6.667 5-6.667s-8.667 2.666-11.333 6.333-10.334 14.666-1.334 24z" fill="#4f4f4f" opacity=".25"/>
 <path d="m292.667,315.333c0,0-3.334,1.667-9.334-5-3.333-3.334-8.999-5.667-11.666-7s-10.333-1-13-3c-5-1-13.001-.666-16.334,2.667-4.333-1.667-8.999-3.667-17-2.667-3.667-1-10.333-2.667-20.333,0-6,.667-18,3-19.333,6.667-2.667.333-4.333-.667-4.333-.667-1,1.667.333,3.667.333,3.667l13.167,7.833c0,0 16.5,8.167 22.667,9.5 9.333,1.333 29.833,3.001 35.5,1.334 7-1.667 15.667-6 21-5.667 7.5-1.833 12.999-4.666 18.333-4.333 1.666-1.667.333-3.334.333-3.334z" fill="#4f4f4f"/>
 <path d="m180.667,306.333c0,0 13.333-6.334 24-7s12.667-.666 20.333.334c3,.666 5.666-.001 7.333-.334 4.667.667 8.917,2.417 8.917,2.417s3-1.5 9.417-3.083c4.333,0 11.333,2.333 11.333,2.333s6,1.334 9,1.667c4.667,1.666 13,8 13,8s5,5.833 8.333,4.333c1.334,1-.333,1.667-.333,1.667s-8.333,1.999-10.333,1.666c-1-2.333-1.001-7.666-12.334-10.333-2-1.667-11.666-8-19.666-3-5.334,0-16-1.334-16.667.333-3,1.334-4.333,4-9.667,1-8.667,1-9.667,1-15.667,0-3.666.334-8.666,1.334-7.666,3.334-1.667,1.666-6.667,2.333-6.667,2.333s-3.333.333-12.666-5.667z" fill="#4f4f4f"/>
 <path d="m180.667,307c0,0-1.666,1.667 1.667,3.667 3.667,2 7.667,3.5 11.167,5.166 5,3 17.5,10.168 24.5,11.834s22.334,3 31.667,2c6.333-1.334 12-3.001 18.333-4.334s11.167-3.5 15.5-4.833 6.834-2.167 9.167-2.5c1-1.667 0-3.333 0-3.333s-.666,2.332-6,2.666c-5,1-8.668,2-13.334-2.333-3.333-1-19.666-3.001-28.666-1.667-9.668.334-15.668.334-20.335-2.333-2.667-.667-15.667-.999-25,1.667-4.333.333-8-.001-10-2.334-3-1.666-5.666-3.333-8.666-3.333z" fill="#4f4f4f"/>
 <path d="m292.5,315.75c0,0 .5,2-2,2.25s-9,2.5-11.25,3.25c-1.75-1.25-4.25-3.5-9-5-3.75-.5-11.5-1.5-12,1-2,.25-5.5-3.25-9.25-3.5s-9.5,1.5-13,1.5-10.5-1.25-12.5-2.5c-3,.25-10.25.5-9.25,3.5 4,3.25 16.25,5.5 18.5,13.25-5-.25-8.25-3-12.5-2-3.25-.25-10.25-2.5-17.75-7-4.75-2.75-19.25-9.25-21.25-11-.5-1.25-.5-3.25 2-3 .5,1.5 6,5.5 9.75,5.5 4.75-.25 13.25-1.5 13.25-1.5s6-.5 12,.5c8,.75 9.5,2 16,1.25 5.5.25 13,.5 15.75.25 4,.5 10.5,1 15.5.5 6.5,1 8.75,3.25 11.75,3.75 3.25-.5 3-3.25 3-4.5 2-1.75 3-2 6,0s4,3.5 6.25,3.5z" fill="#4f4f4f"/>
 <path d="m182.667,306.667c0,0 1,1.5 2.667,1.5 1.833-1 5.5-4.833 10.167-2 4.167,2.166 5.667,3.667 7,5.5 4,0 9.667-1.166 14.167,0-1.333,2.666-7.166,4.833-9.333,5.333-.833.667.333,2.334 1.5,2.667s6,2.166 6.667,4.166c-3,0-11.5-1-15.167-3.333-2.833-.834-5.667-2.333-9.333-4.833-2.667-1.5-9.167-5-9.833-5.667s-1.333-1.833-1.5-3.333c1.331-.334 2.331-.333 2.998,0z" fill="#4f4f4f"/>
 <path d="m279.33 320.83s-14.167-10.333-21-3.333c-2.5 1-11.332 0.499-11.166 2.333s1.332 2.001 2.666 1.834 2.834 2.666 6.667 1.833 6.001 1.666 8.667 1.833c4-0.166 11-3.166 11-3.166s1.666-1.168 3.166-1.334z" fill="#4f4f4f"/>
 <path d="m249,310.333c0,0 5-3.666 9-3.333l.667,2s.334-2.001 2-1.667 1,3.667 1,3.667 1-1.667 2-2c1.666.667.666,3.333.666,3.333s-12.666.333-15.333-2z" fill="#4f4f4f"/>
 <path d="m274.833,318.667c0,0-4.832-3.668-7.666-1.834-1.5-.666-5.334-1.666-5.334.834 .334,1.666 2,1.499 2.167,3.166 0,1.5-.001,3.001 1.833,2.834s6.333-.5 9-5z" fill="#4f4f4f"/>
 <path d="m287.67 314s1.832 1.667 5.166 1c1.334 2-0.5 3.667-0.5 3.667s-4.833-0.834-9.833-0.334c1.833-1.166 4.667-1.666 5.167-4.333z" fill="#4f4f4f" opacity=".47"/>
 <path d="m183.17 306.67s0 2.833 2.5 3.333c2-0.167 4 1.501 5.5 2.167 3.083 0.583 9.583-0.917 12.583-1.167s8-1.5 13.25-0.25c-4 1.5-13.667 2.417-16.167 2.417s-8.833 3-8.833 3-6-3.667-7.5-4.167c-5-2.5-4.75-5.25-1.333-5.333z" fill="#4f4f4f" opacity=".47"/>
 <path d="m250.75,313.75c0,0-3.75,0-13,1-4,0-13-.75-15-3.5 2.25,0 3.25,0 5.75.25 2.25.5 5.75-1 7.25,0 3.25-1.75 4.25-3.25 4.25-3.25s.75,2.25 2.25,2.5 5.5-.25 8.5,3z" fill="#4f4f4f"/>
 <path d="m305.5,325c0,0 10-22.5-14.5-43.5-4.5-8.5-5.5-13-4-15.5-1-2.5-4.5-3-8,2-4,4-13.5,7-20.5,1.5-2.5,2-7.5,5.5-10.5,9.5-4.5,1.5-9,6-23-3-6.5-3.5-6.25-3.5-11.25-4-2.125,1.125-5.75,1.958-8.75,1.875-2.25-.625-5.875,0-8.667,1.125-3,2-23.667,12.333-31.333,11.667-7,6-4.5,14.333-2,20.833s2.5,8 1.5,13.5-3.5,17-2.5,25 3.5,22.5 9,29c-10.5-3-66-38.5-47-108 5-18 11.5-25.5 12.5-37.5 9.5-10 18-9 32.5-2 13-.5 40.5-1.5 49-11.5 2.5-7 1.5-7-.5-11.5-3.5-4-22-20-31-22.5-2-3-2-14.5 35.5-5 10-6 19.5-13.5 37,2.5 15-5 32.5-9.5 52,4s27,19 27.5,41.5c-2.5,1.5-6,4-16.5-6-6-1-9.5,2.5-4,7.5 5.5,2 5.5-.5 9.5.5 4.5,3 5,6.5 5.5,9.5-3,4-13.5,1.5-12.5,7s7.5,10.5 14,24 8,40.5-1.5,53-15.5,26.5-22,32.5c-1-10 0-10.5-5.5-28z" fill="#4f4f4f" opacity=".59"/>
 <path d="m260,177.5c0,0 38.5-14 61.5,18.5 5.5,8 15,18 14.5,23 .5,3.5.5,5.5.5,5.5s-7.5-2-21-12.5c-4.5,6-1,14 .5,16s4.5,5.5 4.5,5.5-20,7.5-47.5-11.5c7,7 15,11.5 15,11.5s-27.5-2-28.5-24.5c-4.5-4-9-2-7.5,17.5 1.5,10 7.5,21.5 8,27s-7,19-15,24c-5,1.5-8.5,1.5-14.5-2.5-6-3-12-4.5-21-3.5-6-2.5-11-5.5-11.5-11.5-6.5,3-19.5,9-23.5,13.5-2,3.5-4,5.5-4,5.5l5-2c0,0-10.667,7.833-12.167,13.333s-2.833,6.667.667,19.667c2,6 3,10 1,15.5-1-7-8.5-14.5-8.5-19.5s-1-14.5 7.5-23.5c6-6 7.5-9.5 7.5-15 6-7 20.5-19 34-25 6.5-6 8-10 8-10s-5-2-21.5,5.5c-2-5 25-17-20-7.5-11,0-14-1.5-20,1 3-5.5 7.5-10 11.5-12-5.5-2-12.5-4-13.5-8.5-3.5-5.5-12.5-6.5-12-14s14.5-21.5 31.5-22c1,8.5-2.5,13.5 10,17.5 15,2 22,.5 21-3.5-3.5-3-10.5-6.5-10-10 3-4 17-7 32.5-.5 17.5,2.5 25,5.5 37-1z" fill="#4f4f4f"/>
 <path d="m238.5 186s-7 6.5 1 15c2 5.5 0 8.5-3 12-0.5 4 5 8.5 5.5 12.5s-5 7.5-9 12-8.5 15.5-0.5 23c7.5 9.5 8 12.5 7.5 15.5 3-3 5-4.5 6.5-2.5 0.5 3.5-2 6-6 7s-18-9-27.5-8.5c-9.5-1-15.5-7-12-19.5-4.5 2-6 1.5-8.5 4.5 2-4.5 7-14 25-15 1-4 3-4.5 3-4.5v4.5s3-8.5 7-11c1.5-3.5 2.5-6 2.5-6l3 0.5s0.5-5-1.5-10c-4.5 6-5.5 7-6.5 10.5-7.5 3.5-13 4-13 4s14.5-10.5 16-18.5 2-6 1.5-13c1.5-3-1.5-8.5-5-11.5 3.5-2.5 7-4 14-1z" fill="#4f4f4f"/>
 <path d="m258 269s6 2 7.5 3c3.5 0 7-0.5 9.5-2.5-2.5 0-8.5-5-11-4.5s-6 4-6 4z" fill="#4f4f4f"/>
 <path d="m202.67 259.67s-0.334 8.667 6.333 9 9.333-1.334 12.333-2.667 5.333-2.334 9.333 1.333 6.333 5.668 5 7.334-5-2.333-6-4-3-4-8.667-1.667-11.667 3.333-14.667 1.333-4.998-5.665-3.665-10.666z" fill="#4f4f4f"/>
 <path d="m257,270.333c0,0 8.333-7.334 9-1-1.333,1.667-3.333,2.334-4.333.667-2,0-.334-1.001-4.667.333z" fill="#4f4f4f"/>
 <path d="m255.5,208c0,0-2,8 .5,11.5l-2.5-2s-6,10.5 1.5,23c4,6.5 7.5,14.5 4,19.5-3,6.5-12,15.5-14.5,18.5 5-2 16-13 19.5-13 1.5-5 7-5.5 10-2 2,2 3.5,3 5-1 .5-5-3.5-14.5-8-14-3-4-5.5-9.5-4-11.5 4-1.5 10.5-5 25.5,4.5s25,11.5 30.5,21.5 14,18 13.5,31-3.5,34.5-7,43.5-11,24-23,25.5c-3.5,13-7.5,21.5-12.5,26.5 11.5-6 23-14 33.5-29.5s18-32.5 21-55.5c6-8 4-3.5 6.5-11.5 4.5-4 6-6.5 6-6.5s-3.5.5-3.5-3c-2-2.5-3-4.5-3.5-9-1.5-5.5-3-7.5-3-7.5s2-8.5 2.5-29.5c.5-11-1.5-19 4-25l2-1 2-2c0,0 .5-7 3-11.5 1-9.5 6-28.5-7-84.5-9-26.5-25-42.5-46.5-59-19-13-32-18-37.5-22.5-12.5-4-24-2-22.5,1.5s5.5,11 12,15.5c2.5,4 3,5.5-2,13 1.5,5.5 25.5,26.5 34.5,36 6.5,9 19.5,30.5 8.5,42.5-7,4.5-18.5,11.5-7,28 9.5,12.5 39.5,35 38.5,54-2.5,1-5.5.5-14-4.5-4-.5-8,3.5-16,4 5.5,1.5 9-.5 11,5 5,1 11.5.5 16,8-6.5-1-9-1.5-14.5,0-5.5-.5-9-1-19.5-.5-11-1-25.5,0-31-6-4.5-7-9.5-23-12-20.5z" fill="#4f4f4f"/>
 <path d="m168 205.67s5.334-7.333 20.667-7c15.333 1 17.333 9.666 27.333 12.333 2.333 2.667-1 4.667-7.333 1-5-1.333-10 0.333-13.667 0.667s-20.667 0.666-27-7z" fill="#4f4f4f"/>
 <path d="m321 215.67s0.667-3.667-7.333-6.667c-8.333-4-14.334-6.667-27.667-2.333-6 2-15.666 5-17.333 8.667 1 3 6.666 2 10.333 1s7 1.666 14.667 2.666 21.666-2.667 27.333-3.333z" fill="#4f4f4f"/>
 <path d="m186.5,213c0,0 3.5,1.5 12-.25 5-.25 7-1.25 11,.5 4.5,1.75 6.5,2 7.75.75 0-2.5-.5-3-8.25-7.5-4-2-6-3-7.75-4.25 2.5,3.25 7,5.75 7.25,7.5-1,1.25-3.75-.25-6.25.75-3.25.75-6,2.25-15.75,2.5z" fill="#4f4f4f"/>
 <path d="m292,219.25c0,0-6,.5-7.75-.75-2.25-1-4-2.25-7.25-1-3.5.5-8,1.25-8.25-1.75 1-2.5 3.5-4.5 6-5 3.5-.75 5.25-2.5 9.5-4.25 2-.75 3.25-1.5 3.25-1.5s-8,5.75-6.75,8.25 4.25,2.25 5.75,3 2.5,2.5 5.5,3z" fill="#4f4f4f"/>
 <path d="m177.75 200.75s-2.5 5 1.25 10.75c5.5 1.25 7.5 2 12.5 1s6.5-8.75 5.75-11.5c-2.75-1.5-4.25-3.5-19.5-0.25z" fill="#4f4f4f"/>
 <path d="m289 205.5s-3.5 7 1.5 12.75c4.5 1.5 8.625 1.125 14 0.375 3.25-4.5 2.75-10.125 1.5-12.625-2.25-1.5-7-3-17-0.5z" fill="#4f4f4f"/>
 <path d="m306.625,205.875c0,0 2.375,8.375-1.125,11.125-1,1.5-2.5,1.25-2.5,1.25s7.75-8.5-2.75-12.75c-4.5.25-9.75.5-11,3.5l-1,1s-.75-2.375 1-4.875c4.5-1.375 10.75-2.75 17.375.75z" fill="#4f4f4f"/>
 <path d="m288.62 215.12s1.875 2.125 4.375 3.375c-2.25 0.5-3.75-1.25-4.375-3.375z" fill="#4f4f4f"/>
 <path d="m176,201.667c0,0-1,3.833 2,8.333 1.583.5 1.75-1.75 1.75-1.75s-1.75-4.5 3-5 8.25-1 10.25-2.25c1.75,0 4.75,4 1.5,8.5 0,1 1,.5 1,.5s2-3.5 2-8c-3.25-5.5-19.25-2.667-21.5-.333z" fill="#4f4f4f"/>
 <path d="m301.25 210.25a3.75 3.75 0 1 0 -7.5 0 3.75 3.75 0 1 0 7.5 0" fill="#4f4f4f"/>
 <path d="m190 204.5a3.75 3.75 0 1 0 -7.5 0 3.75 3.75 0 1 0 7.5 0" fill="#4f4f4f"/>
 <path d="m160,211c0,0 5.5-4.5 11.5-3 .25-1.75 1.25-5.75 6.5-7 6-1 12.25-2.25 20.25.75 2.25.75 5.5,3.5 9.25,5.25s8.5,5 6.5,6.75c1.25,0 .5-1.25 1.25,0 1.75,0 4-1.25.25-4-4.5-1.75-7.5-3.5-9.75-5.25s-10-6.75-15.75-6.75-11.5,1-19.25,4.5c-4.25,1.75-4.75,2.25-6,2.25-1.75,1-4.25,4.25-4.75,6.5z" fill="#4f4f4f"/>
 <path d="m152.25 211.75s3.25-3.25 5-3c1.75-2.25 7.25-8.5 13-9.75 5.75-1 14.75-1.75 26-3.75 5 0.25 11.25 2.5 14.75 5.5 3.75 3.25 7.5 5.25 8.75 7 1 3 1.25 4.5-0.5 5.75l1.75 1s5.5-2.25 4.25-6.75c1-3.25 1.5-10.25-9.75-14 2.75 4 6.25 6.5 5.75 10.5-1.75-2.5-3.75-2.5-5.5-3.5s-9-8-19.5-7.5c-3.5 0.75-6 2.5-10.5 1.75s-19 1.25-22.25 4.5c-3.75 2.5-10.25 7.75-11.25 12.25z" fill="#4f4f4f"/>
 <path d="m327.25,215.5c0,0-1-6.75-6.75-9.75s-16-8.75-30-7.25c-5.5-.25-8.75.5-10.5,1.75 3,.75 6.5,1.5 9.75,1s12-.5 17.5,1.5 9.5,2.5 11.5,3.5 4.5,4 5,5.75c.75,2.25 1.75,3.25 3.5,3.5z" fill="#4f4f4f"/>
 <path d="m323.75,216.75c0,0-2.25-4-2.75-6.25-4-1.75-11.5-4.5-15-6.5-3.75-.75-11-2-18.75,1-5,2.25-10.25,5.25-12.75,5.5-2.5,1-6.25,4.75-5,6.25 2,1.5 3.75,1.75 6.25.25 3.25,0 4.25-.5 6.5-.25 1,.125 2.375,0 2.375,0s-1.375-1.75-6.125-1c-2.125.375-5.125,1.75-5.75,1.25-1.125-.5-2-1.625-1.5-2.5s1-2.875 7.25-4.375c4.125-1.5 6.875-3.625 8.75-4.375s8.875-2.25 11.875-1.875 5.75.875 8.25,2.5 2.625,3 5.5,4.75 6.375,4.5 10.875,5.625z" fill="#4f4f4f" opacity=".87"/>
 <path d="m303.5 208.5s-3.5-1-3.5 0.75 0.5 3.75 1.75 3.25 2.25-2.5 1.75-4z" fill="#4f4f4f"/>
 <path d="m190.5 202.25s0.25 2.5 1.25 3.5c1.75 0.5 3-0.25 3-2s-3.5-2.5-4.25-1.5z" fill="#4f4f4f"/>
 <path d="m221,187c0,0-2-4-2.667-8-3-2-30-10-45-4-4.667-1-7.333,0-8-1-4,1-11.333,1-19,11.667 8.333,0 9.333-2 14.667-3.333 6-.333 6-.334 9,.333 4.333-.667 13.667-2.667 18.667,1.333 6,0 22,.333 32.333,3z" fill="#4f4f4f"/>
 <path d="m267,189c0,0 5.666-6.667 15.333-7.667 5.667-1 8.001-1.667 10.334-2.333 5-.333 17.334-2 32,6.667 5.666,1.667 6.666,3 8.666,6.333-6.333.333-18.333.333-20.333-1.667-4.333,0-13.001-.667-15.667,1-4-.333-4.332-2.667-12.666-.667-7.334-.666-11-2.333-17.667-1.666z" fill="#4f4f4f" opacity=".8"/>
 <path d="m95.333,199.667c0,0 3-14 4.667-23.333 .333-12-1.667-20.333.667-33 1.666-8.667 2.333-14.334 2.333-14.334s12.333-36.667 12.333-4.667c1.334,6.667 6,26.667 5.667,38.667-.667,12 4,21 4,28.333s-6.333,26-8,31.333-2.333,19.334-.667,25.334c1.333,7 3.667,20.334 3.667,27.667 4.333,7.666 18.333,17 22,25.333s7.333,19 13.667,24c1.667,4.667 5,6.333 7.667,4 2.667-4 2.333-5.666 2-8.333 4.666,1.666 14.666,8.666 20.666,19.333s19.333,40.001 28.333,45.667 26,9.334 34.333,6 22-4.001 30.333-26.334c4.667-12 9.001-21 16.667-27 6.666-7 10.666-10.999 12.333-13.666 .667,3.333-1.001,5.334-1.667,11 .667,2.333 2.334,3.666 2.334,3.666s17-4.333 22-17.333c5.334-13.333 9.334-30.001 15.334-37.667 2.667-3.666 6-6.666 6-6.666s-3.001,15.999-.667,30.666c0,9-3.666,27.001-9.333,36.334-8.333,10.333-16.334,18.332-22.667,26.666s-15.999,18.667-25.666,24.667-27.667,15.667-37.667,17.667-37.667,1.332-50.333-2.334c-9.333-2.666-25.667-11.667-32.667-22-7.667-3.666-23-13.332-32.667-33.666-4.333-5.667-16.667-18.333-19.667-35-2.667-10.334-3.333-17.001-4-33.334-.666-9.666-3.333-24.667-2.666-34.333-.667-9-3-18-1-23.333 .333-6 .667-16-2-19.667s-4.667-3-8-7.333c-3-1.667-4.667-2.667-7.667-3z" fill="#4f4f4f" opacity=".34"/>
 <path d="m277,268.333c0,0 3.667-3.333 2-10.999-1-5.334-1.333-5-3.333-8.334 6,.667 11.334,1.667 16,12 3,3.333 9.332,11.333 11.666,17 4,6.667 10.666,12.333 12,23.333 0,6.667-1,16.001-4.333,20.334-.667,2.666-2.333,4-2,6.333-1-3 .666-7.667 1.333-9.667s3-8.666 1-17.333c-2.333-6-3.334-9.001-10-17.667-3.666-5.333-4.334-11-12-17.333-4.666-3.667-5-3.666-7.333-4.333 .333,2-.333,6.666-5,6.666z" fill="#4f4f4f"/>
 <path d="m167.333,320.667c0,0-.333-7.668-5.333-19.334-.667-5.666.667-15.332 12.333-20.666h-6.667c4.333-4 15-12.666 17-15 2.333,1 4.333-.334 4.333-.334s4.667-7.667 7.333-7.667 6,3 6.667,5.667c.333-6.333 4-11.667 8-12.667 5.333-1.333 9-5 8.333-7-2-1.667-3.667-1.333-5.667,0-2.665.001-3.665-1.666-8.665,2.334-5,2-7,2-9.667,4s-7.667,6.333-11.667,12.333c-4.667,5-7.333,6.333-11,10s-10,12.334-12,12.667c-3,3.333-6,11.666-4.667,16.333s3.667,6 3.667,6 6.667,5.334 7.667,13.334z" fill="#4f4f4f"/>
 <path d="m369,222c0,0-13.666,7.667-14.666,21.667 0,4.667.334,19.667-2,24 0,3 0,4.334 3,3s8.332-5.667 7.666-17.333c-1.666-9.334-4-9.334-5-11.667s-.666-6.667 1.334-8.667 3.666-.667 4.666.333 1,5.666 2,7.333 4,15 1.667,20.333c1.333.333 4-4.334 4-10s-2-14-2-16.667 4.333-6 3.333-8.667-1-3.998-4-3.665z" fill="#4f4f4f"/>
 <path d="m96.5,216.5c0,0-10-14.5-15-4.5-1,6 .25,13.25 1.25,15.75 1,4.5 2,16.5 5.5,19.5 .25-5 4.75-14.5 5.75-18.5s.25-10.75 2.5-12.25z" fill="#4f4f4f"/>
 <path d="m104.5 229.75s8.25 8.25 6 12c-2.75 1-3 3.25-3 3.25s-1 10.25 3.5 14.75c0 2.25-5.25 0.75-5.75 2s-0.25 3.75-1 3.5-1.25-2-2.5-3-5.75-2.5-7-5.5-1.75-10 2-12.5 8.5-2.75 8.5-5.75-2.25-3.25-2-5 1.25-3.75 1.25-3.75z" fill="#4f4f4f"/>
 <path d="m130.75 194.75" fill="#4f4f4f"/>
 <path d="m96.5,216.5c0,0-7.75-10.75-11.25-8.25-2.75,1.75-3.75,3.5-3.25,6.75 2-2.5 7.25-5.25 8.5.25-.5,4.25-4.75,13.5-2,20.25-1.5,3.5-2,5-2.75,3 .5,3.25 2,6.25 2.75,7.75 .25-4.25 2-4.75 2-7s1.5-9.25 3-12.25c1.25-4.5.5-10.25 3-10.5z" fill="#4f4f4f"/>
 <path d="m103.75,230c0,0 4.5,6.25 7,7-.25,3-.75,4.75-1.75,5.25s-10.75,1.25-10,6c1.25,3 3.5,2.75 4.5,5.5s.75,4.75 3.5,4c2,.75 3.75,4.5 3.5,5.5 .5,2.25 1.5,4 .5,4.5s-2.25-5.25-4.5-6c-2,.25-4.75.75-7-1.75-2-1.5-3.5-1-3.5-1s-5.75-11-2.25-14.25 7-5.5 12-5.5c1.5-.75-.25-3.25-1-4.25s-1.75-2.5-1-5z" fill="#4f4f4f"/>
 <path d="m265 18.333s-33.333 2.667-73.333 18.667-59.333 57.333-64 70-6 33.333-6 40.667-1.333 38-4.667 44c-3-1.167-8.5-4.667-16.5 8.333-3 11-2 13-1 22 1 12.5 9 39.5 23.5 51.5 6.5 9.5 8 10 15 12.5 1.5 13 6 46.5 27.5 64 9.5 11 19.5 22.5 27 27 8 8 35.5 27.5 62 28.5s40.5-5.5 52-13 31-22 49-49c8.5-14 13-20.5 16.5-50 4.5-3 4.5-6 6-9 4.5-2 7-7.5 14.5-25.5 3.5-6.5 6.5-15 6.5-15s-1-6-2.5-17.5c2.5-5 3.5-7.5 3.5-7.5s-0.5-16.5-14-18c-2 1-4.5 2.5-4.5 2.5s1.5-8.5 4.5-14c1.5-10.5 5.5-50-11.5-98.5-12.5-23.5-38-43.5-56-54s-35-16.833-53.5-18.667z" fill="url(#g)"/>
 <path d="m241,26.5c0,0-18,10.5-19,13 5-1 9.5-4 9.5-4s-5,7-17,10c-6.5,4-13,8.5-7.5,8s18-1 21,.5c4-5 24-20 39.5-4 3.5,10.5 2,20-1,21.5s-13.5,6-29-1.5c-7.5-3-36,12-30.5,39-8,8.5-14.5,8-8.5,34 3,7.5 14.5,16.5 1.5,33-7,2-24.5,5-23,9 4.5,1 5,4 5,4s-8,.5-8.5,5.5c-6,.5-12.5,0-12.5,0s-6,7.5-2,16.5c.5,9-3.5,14-1.5,15.5 5.5-.5 14.5-1 16,10.5-2.5,6-26,49 5.5,76 1.5,5 2.5,8.5 5.5,11.5s5,5.5 5,5.5 0,31 10,46c-9-4-17.5-7-30.5-24-11-11.5-27-25-30-62.5-7-5.5-5,1-15.5-16.5-5.5-4.5-11-10-16.5-22-3.5-9.5-6.5-12.5-6-30-2-5.5-4-9-1-19 2-6 6.5-13 15-10 4,.5 6.5,1.5 6.5,1.5s-2.5-16 1-54.5c2.5-17 8.5-28 10-34 6-5.5 24.5-14 40-34 7.5-7.5 18-12.5 23.5-17-6.5.5-19,5-19,5s9.5-14 38-24.5c10-2 18-4.5 26-8z" fill="url(#f)" opacity=".33"/>
 <path d="m211.333,302.333c0,0 20.667,21 30,25 10,1 16-.999 20-.666s11.001,1.334 13.334,4c4,.333 9-3.333 11.333-3s4.001,15.999-.333,16.666-11.666-.666-13,.334c1.333,2.666 6,12.334-5,16-8.334-.334-15.667-6.667-15.667-6.667s-7-8.333-11.333-8-20.333-6.999-25.333-21.333-12.001-14.334-4.001-22.334" fill="#62372e" opacity=".27"/>
 <path d="m183.33 301.33s1.333-6 11-7 16.333-5 23.667-6.333 23-1.333 28.333-2.333 7-3.001 8-5.334 1.667-7.332-3-9.666-6.333-3.001-7-5.334c-2.667-2.333-6-4-6-4s-2 3.668-7.333 4.334-8-1-14 2.333c-5.667 2.333-6.667 3.333-10 4s-6 1.667-6.667 3.667c-3.667 2.333-8.333 3.667-9.333 2 1-2.667 5-6.667 5-6.667s-8.667 2.666-11.333 6.333-10.334 14.666-1.334 24z" fill="url(#e)" opacity=".25"/>
 <path d="m314.667,307.333c0,0-3.334,1.667-9.334-5-3.333-3.334-8.999-5.667-11.666-7s-10.333-1-13-3c-5-1-13.001-.666-16.334,2.667-4.333-1.667-8.999-3.667-17-2.667-3.667-1-10.333-2.667-20.333,0-6,.667-18,3-19.333,6.667-2.667.333-4.333-.667-4.333-.667-1,1.667.333,3.667.333,3.667l13.167,7.833c0,0 16.5,8.167 22.667,9.5 9.333,1.333 29.833,3.001 35.5,1.334 7-1.667 15.667-6 21-5.667 7.5-1.833 12.999-4.666 18.333-4.333 1.666-1.667.333-3.334.333-3.334z" fill="#7d3639"/>
 <path d="m202.667,298.333c0,0 13.333-6.334 24-7s12.667-.666 20.333.334c3,.666 5.666-.001 7.333-.334 4.667.667 8.917,2.417 8.917,2.417s3-1.5 9.417-3.083c4.333,0 11.333,2.333 11.333,2.333s6,1.334 9,1.667c4.667,1.666 13,8 13,8s5,5.833 8.333,4.333c1.334,1-.333,1.667-.333,1.667s-8.333,1.999-10.333,1.666c-1-2.333-1.001-7.666-12.334-10.333-2-1.667-11.666-8-19.666-3-5.334,0-16-1.334-16.667.333-3,1.334-4.333,4-9.667,1-8.667,1-9.667,1-15.667,0-3.666.334-8.666,1.334-7.666,3.334-1.667,1.666-6.667,2.333-6.667,2.333s-3.333.333-12.666-5.667z" fill="#601d26"/>
 <path d="m202.667,299c0,0-1.666,1.667 1.667,3.667 3.667,2 7.667,3.5 11.167,5.166 5,3 17.5,10.168 24.5,11.834s22.334,3 31.667,2c6.333-1.334 12-3.001 18.333-4.334s11.167-3.5 15.5-4.833 6.834-2.167 9.167-2.5c1-1.667 0-3.333 0-3.333s-.666,2.332-6,2.666c-5,1-8.668,2-13.334-2.333-3.333-1-19.666-3.001-28.666-1.667-9.668.334-15.668.334-20.335-2.333-2.667-.667-15.667-.999-25,1.667-4.333.333-8-.001-10-2.334-3-1.666-5.666-3.333-8.666-3.333z" fill="#7c2c32"/>
 <path d="m314.5,307.75c0,0 .5,2-2,2.25s-9,2.5-11.25,3.25c-1.75-1.25-4.25-3.5-9-5-3.75-.5-11.5-1.5-12,1-2,.25-5.5-3.25-9.25-3.5s-9.5,1.5-13,1.5-10.5-1.25-12.5-2.5c-3,.25-10.25.5-9.25,3.5 4,3.25 16.25,5.5 18.5,13.25-5-.25-8.25-3-12.5-2-3.25-.25-10.25-2.5-17.75-7-4.75-2.75-19.25-9.25-21.25-11-.5-1.25-.5-3.25 2-3 .5,1.5 6,5.5 9.75,5.5 4.75-.25 13.25-1.5 13.25-1.5s6-.5 12,.5c8,.75 9.5,2 16,1.25 5.5.25 13,.5 15.75.25 4,.5 10.5,1 15.5.5 6.5,1 8.75,3.25 11.75,3.75 3.25-.5 3-3.25 3-4.5 2-1.75 3-2 6,0s4,3.5 6.25,3.5z" fill="#62101e"/>
 <path d="m204.667,298.667c0,0 1,1.5 2.667,1.5 1.833-1 5.5-4.833 10.167-2 4.167,2.166 5.667,3.667 7,5.5 4,0 9.667-1.166 14.167,0-1.333,2.666-7.166,4.833-9.333,5.333-.833.667.333,2.334 1.5,2.667s6,2.166 6.667,4.166c-3,0-11.5-1-15.167-3.333-2.833-.834-5.667-2.333-9.333-4.833-2.667-1.5-9.167-5-9.833-5.667s-1.333-1.833-1.5-3.333c1.331-.334 2.331-.333 2.998,0z" fill="#391218"/>
 <path d="m301.33 312.83s-14.167-10.333-21-3.333c-2.5 1-11.332 0.499-11.166 2.333s1.332 2.001 2.666 1.834 2.834 2.666 6.667 1.833 6.001 1.666 8.667 1.833c4-0.166 11-3.166 11-3.166s1.666-1.168 3.166-1.334z" fill="#913b4a"/>
 <path d="m271,302.333c0,0 5-3.666 9-3.333l.667,2s.334-2.001 2-1.667 1,3.667 1,3.667 1-1.667 2-2c1.666.667.666,3.333.666,3.333s-12.666.333-15.333-2z" fill="#945855"/>
 <path d="m296.833,310.667c0,0-4.832-3.668-7.666-1.834-1.5-.666-5.334-1.666-5.334.834 .334,1.666 2,1.499 2.167,3.166 0,1.5-.001,3.001 1.833,2.834s6.333-.5 9-5z" fill="#9f8294"/>
 <path d="m309.67 306s1.832 1.667 5.166 1c1.334 2-0.5 3.667-0.5 3.667s-4.833-0.834-9.833-0.334c1.833-1.166 4.667-1.666 5.167-4.333z" fill="#180a0c" opacity=".47"/>
 <path d="m205.17 298.67s0 2.833 2.5 3.333c2-0.167 4 1.501 5.5 2.167 3.083 0.583 9.583-0.917 12.583-1.167s8-1.5 13.25-0.25c-4 1.5-13.667 2.417-16.167 2.417s-8.833 3-8.833 3-6-3.667-7.5-4.167c-5-2.5-4.75-5.25-1.333-5.333z" fill="#180a0c" opacity=".47"/>
 <path d="m272.75,305.75c0,0-3.75,0-13,1-4,0-13-.75-15-3.5 2.25,0 3.25,0 5.75.25 2.25.5 5.75-1 7.25,0 3.25-1.75 4.25-3.25 4.25-3.25s.75,2.25 2.25,2.5 5.5-.25 8.5,3z" fill="#4d111c"/>
 <path d="m327.5,317c0,0 10-22.5-14.5-43.5-4.5-8.5-5.5-13-4-15.5-1-2.5-4.5-3-8,2-4,4-13.5,7-20.5,1.5-2.5,2-7.5,5.5-10.5,9.5-4.5,1.5-9,6-23-3-6.5-3.5-6.25-3.5-11.25-4-2.125,1.125-5.75,1.958-8.75,1.875-2.25-.625-5.875,0-8.667,1.125-3,2-23.667,12.333-31.333,11.667-7,6-4.5,14.333-2,20.833s2.5,8 1.5,13.5-3.5,17-2.5,25 3.5,22.5 9,29c-10.5-3-66-38.5-47-108 5-18 11.5-25.5 12.5-37.5 9.5-10 18-9 32.5-2 13-.5 40.5-1.5 49-11.5 2.5-7 1.5-7-.5-11.5-3.5-4-22-20-31-22.5-2-3-2-14.5 35.5-5 10-6 19.5-13.5 37,2.5 15-5 32.5-9.5 52,4s27,19 27.5,41.5c-2.5,1.5-6,4-16.5-6-6-1-9.5,2.5-4,7.5 5.5,2 5.5-.5 9.5.5 4.5,3 5,6.5 5.5,9.5-3,4-13.5,1.5-12.5,7s7.5,10.5 14,24 8,40.5-1.5,53-15.5,26.5-22,32.5c-1-10 0-10.5-5.5-28z" fill="url(#d)" opacity=".59"/>
 <path d="m282,169.5c0,0 38.5-14 61.5,18.5 5.5,8 15,18 14.5,23 .5,3.5.5,5.5.5,5.5s-7.5-2-21-12.5c-4.5,6-1,14 .5,16s4.5,5.5 4.5,5.5-20,7.5-47.5-11.5c7,7 15,11.5 15,11.5s-27.5-2-28.5-24.5c-4.5-4-9-2-7.5,17.5 1.5,10 7.5,21.5 8,27s-7,19-15,24c-5,1.5-8.5,1.5-14.5-2.5-6-3-12-4.5-21-3.5-6-2.5-11-5.5-11.5-11.5-6.5,3-19.5,9-23.5,13.5-2,3.5-4,5.5-4,5.5l5-2c0,0-10.667,7.833-12.167,13.333s-2.833,6.667.667,19.667c2,6 3,10 1,15.5-1-7-8.5-14.5-8.5-19.5s-1-14.5 7.5-23.5c6-6 7.5-9.5 7.5-15 6-7 20.5-19 34-25 6.5-6 8-10 8-10s-5-2-21.5,5.5c-2-5 25-17-20-7.5-11,0-14-1.5-20,1 3-5.5 7.5-10 11.5-12-5.5-2-12.5-4-13.5-8.5-3.5-5.5-12.5-6.5-12-14s14.5-21.5 31.5-22c1,8.5-2.5,13.5 10,17.5 15,2 19,1 18-3-3.5-3-7.5-7-7-10.5 3-4 17-7 32.5-.5 17.5,2.5 25,5.5 37-1z" fill="url(#c)"/>
 <g fill="#6c3c32">
  <path d="m260.5 178s-7 6.5 1 15c2 5.5 0 8.5-3 12-0.5 4 5 8.5 5.5 12.5s-5 7.5-9 12-8.5 15.5-0.5 23c7.5 9.5 8 12.5 7.5 15.5 3-3 5-4.5 6.5-2.5 0.5 3.5-2 6-6 7s-18-9-27.5-8.5c-9.5-1-15.5-7-12-19.5-4.5 2-6 1.5-8.5 4.5 2-4.5 7-14 25-15 1-4 3-4.5 3-4.5v4.5s3-8.5 7-11c1.5-3.5 2.5-6 2.5-6l3 0.5s0.5-5-1.5-10c-4.5 6-5.5 7-6.5 10.5-7.5 3.5-13 4-13 4s14.5-10.5 16-18.5 2-6 1.5-13c1.5-3-1.5-8.5-5-11.5 3.5-2.5 7-4 14-1z" opacity=".69"/>
  <path d="m280 261s6 2 7.5 3c3.5 0 7-0.5 9.5-2.5-2.5 0-8.5-5-11-4.5s-6 4-6 4z"/>
 </g>
 <g fill="#331214">
  <path d="m224.67 251.67s-0.334 8.667 6.333 9 9.333-1.334 12.333-2.667 5.333-2.334 9.333 1.333 6.333 5.668 5 7.334-5-2.333-6-4-3-4-8.667-1.667-11.667 3.333-14.667 1.333-4.998-5.665-3.665-10.666z"/>
  <path d="m279,262.333c0,0 8.333-7.334 9-1-1.333,1.667-3.333,2.334-4.333.667-2,0-.334-1.001-4.667.333z"/>
 </g>
 <path d="m277.5,200c0,0-2,8 .5,11.5l-2.5-2s-6,10.5 1.5,23c4,6.5 7.5,14.5 4,19.5-3,6.5-12,15.5-14.5,18.5 5-2 16-13 19.5-13 1.5-5 7-5.5 10-2 2,2 3.5,3 5-1 .5-5-3.5-14.5-8-14-3-4-5.5-9.5-4-11.5 4-1.5 10.5-5 25.5,4.5s25,11.5 30.5,21.5 14,18 13.5,31-3.5,34.5-7,43.5-11,24-23,25.5c-3.5,13-7.5,21.5-12.5,26.5 11.5-6 23-14 33.5-29.5s18-32.5 21-55.5c6-8 4-3.5 6.5-11.5 4.5-4 6-6.5 6-6.5s-3.5.5-3.5-3c-2-2.5-3-4.5-3.5-9-1.5-5.5-3-7.5-3-7.5s2-8.5 2.5-29.5c.5-11-1.5-19 4-25l2-1 2-2c0,0 .5-7 3-11.5 1-9.5 6-28.5-7-84.5-9-26.5-25-42.5-46.5-59-19-13-32-18-37.5-22.5-12.5-4-24-2-22.5,1.5s5.5,11 12,15.5c2.5,4 3,5.5-2,13 1.5,5.5 25.5,26.5 34.5,36 6.5,9 19.5,30.5 8.5,42.5-7,4.5-18.5,11.5-7,28 9.5,12.5 39.5,35 38.5,54-2.5,1-5.5.5-14-4.5-4-.5-8,3.5-16,4 5.5,1.5 9-.5 11,5 5,1 11.5.5 16,8-6.5-1-9-1.5-14.5,0-5.5-.5-9-1-19.5-.5-11-1-25.5,0-31-6-4.5-7-9.5-23-12-20.5z" fill="url(#b)" opacity=".48"/>
 <g fill="#fff">
  <path d="m190 197.67s5.334-7.333 20.667-7c15.333 1 17.333 9.666 27.333 12.333 2.333 2.667-1 4.667-7.333 1-5-1.333-10 0.333-13.667 0.667s-20.667 0.666-27-7z"/>
  <path d="m343 207.67s0.667-3.667-7.333-6.667c-8.333-4-14.334-6.667-27.667-2.333-6 2-15.666 5-17.333 8.667 1 3 6.666 2 10.333 1s7 1.666 14.667 2.666 21.666-2.667 27.333-3.333z"/>
 </g>
 <g fill="#562b24">
  <path d="m208.5,205c0,0 3.5,1.5 12-.25 5-.25 7-1.25 11,.5 4.5,1.75 6.5,2 7.75.75 0-2.5-.5-3-8.25-7.5-4-2-6-3-7.75-4.25 2.5,3.25 7,5.75 7.25,7.5-1,1.25-3.75-.25-6.25.75-3.25.75-6,2.25-15.75,2.5z"/>
  <path d="m314,211.25c0,0-6,.5-7.75-.75-2.25-1-4-2.25-7.25-1-3.5.5-8,1.25-8.25-1.75 1-2.5 3.5-4.5 6-5 3.5-.75 5.25-2.5 9.5-4.25 2-.75 3.25-1.5 3.25-1.5s-8,5.75-6.75,8.25 4.25,2.25 5.75,3 2.5,2.5 5.5,3z"/>
 </g>
 <path d="m199.75 192.75s-2.5 5 1.25 10.75c5.5 1.25 7.5 2 12.5 1s6.5-8.75 5.75-11.5c-2.75-1.5-4.25-3.5-19.5-0.25z" fill="url(#h)"/>
 <path d="m311 197.5s-3.5 7 1.5 12.75c4.5 1.5 8.625 1.125 14 0.375 3.25-4.5 2.75-10.125 1.5-12.625-2.25-1.5-7-3-17-0.5z" fill="url(#i)"/>
 <path d="m328.625,197.875c0,0 2.375,8.375-1.125,11.125-1,1.5-2.5,1.25-2.5,1.25s7.75-8.5-2.75-12.75c-4.5.25-9.75.5-11,3.5l-1,1s-.75-2.375 1-4.875c4.5-1.375 10.75-2.75 17.375.75z" fill="#2a2826"/>
 <path d="m310.62 207.12s1.875 2.125 4.375 3.375c-2.25 0.5-3.75-1.25-4.375-3.375z" fill="#2a2826"/>
 <path d="m198,193.667c0,0-1,3.833 2,8.333 1.583.5 1.75-1.75 1.75-1.75s-1.75-4.5 3-5 8.25-1 10.25-2.25c1.75,0 4.75,4 1.5,8.5 0,1 1,.5 1,.5s2-3.5 2-8c-3.25-5.5-19.25-2.667-21.5-.333z" fill="#202321"/>
 <path d="m323.25 202.25a3.75 3.75 0 1 0 -7.5 0 3.75 3.75 0 1 0 7.5 0" fill="#14171e"/>
 <path d="m212 196.5a3.75 3.75 0 1 0 -7.5 0 3.75 3.75 0 1 0 7.5 0" fill="#14171e"/>
 <path d="m182,203c0,0 5.5-4.5 11.5-3 .25-1.75 1.25-5.75 6.5-7 6-1 12.25-2.25 20.25.75 2.25.75 5.5,3.5 9.25,5.25s8.5,5 6.5,6.75c1.25,0 .5-1.25 1.25,0 1.75,0 4-1.25.25-4-4.5-1.75-7.5-3.5-9.75-5.25s-10-6.75-15.75-6.75-11.5,1-19.25,4.5c-4.25,1.75-4.75,2.25-6,2.25-1.75,1-4.25,4.25-4.75,6.5z" fill="#211313"/>
 <path d="m174.25 203.75s3.25-3.25 5-3c1.75-2.25 7.25-8.5 13-9.75 5.75-1 14.75-1.75 26-3.75 5 0.25 11.25 2.5 14.75 5.5 3.75 3.25 7.5 5.25 8.75 7 1 3 1.25 4.5-0.5 5.75l1.75 1s5.5-2.25 4.25-6.75c1-3.25 1.5-10.25-9.75-14 2.75 4 6.25 6.5 5.75 10.5-1.75-2.5-3.75-2.5-5.5-3.5s-9-8-19.5-7.5c-3.5 0.75-6 2.5-10.5 1.75s-19 1.25-22.25 4.5c-3.75 2.5-10.25 7.75-11.25 12.25z" fill="#381d19"/>
 <path d="m349.25,207.5c0,0-1-6.75-6.75-9.75s-16-8.75-30-7.25c-5.5-.25-8.75.5-10.5,1.75 3,.75 6.5,1.5 9.75,1s12-.5 17.5,1.5 9.5,2.5 11.5,3.5 4.5,4 5,5.75c.75,2.25 1.75,3.25 3.5,3.5z" fill="#211313"/>
 <path d="m345.75,208.75c0,0-2.25-4-2.75-6.25-4-1.75-11.5-4.5-15-6.5-3.75-.75-11-2-18.75,1-5,2.25-10.25,5.25-12.75,5.5-2.5,1-6.25,4.75-5,6.25 2,1.5 3.75,1.75 6.25.25 3.25,0 4.25-.5 6.5-.25 1,.125 2.375,0 2.375,0s-1.375-1.75-6.125-1c-2.125.375-5.125,1.75-5.75,1.25-1.125-.5-2-1.625-1.5-2.5s1-2.875 7.25-4.375c4.125-1.5 6.875-3.625 8.75-4.375s8.875-2.25 11.875-1.875 5.75.875 8.25,2.5 2.625,3 5.5,4.75 6.375,4.5 10.875,5.625z" fill="#211313" opacity=".87"/>
 <g fill="#777a77">
  <path d="m325.5 200.5s-3.5-1-3.5 0.75 0.5 3.75 1.75 3.25 2.25-2.5 1.75-4z"/>
  <path d="m212.5 194.25s0.25 2.5 1.25 3.5c1.75 0.5 3-0.25 3-2s-3.5-2.5-4.25-1.5z"/>
 </g>
 <g fill="#311f1c">
  <path d="m243,179c0,0-2-4-2.667-8-3-2-30-10-45-4-4.667-1-7.333,0-8-1-4,1-11.333,1-19,11.667 8.333,0 9.333-2 14.667-3.333 6-.333 6-.334 9,.333 4.333-.667 13.667-2.667 18.667,1.333 6,0 22,.333 32.333,3z"/>
  <path d="m289,181c0,0 5.666-6.667 15.333-7.667 5.667-1 8.001-1.667 10.334-2.333 5-.333 17.334-2 32,6.667 5.666,1.667 6.666,3 8.666,6.333-6.333.333-18.333.333-20.333-1.667-4.333,0-13.001-.667-15.667,1-4-.333-4.332-2.667-12.666-.667-7.334-.666-11-2.333-17.667-1.666z" opacity=".8"/>
 </g>
 <path d="m117.333,191.667c0,0 3-14 4.667-23.333 .333-12-1.667-20.333.667-33 1.666-8.667 2.333-14.334 2.333-14.334s12.333-36.667 12.333-4.667c1.334,6.667 6,26.667 5.667,38.667-.667,12 4,21 4,28.333s-6.333,26-8,31.333-2.333,19.334-.667,25.334c1.333,7 3.667,20.334 3.667,27.667 4.333,7.666 18.333,17 22,25.333s7.333,19 13.667,24c1.667,4.667 5,6.333 7.667,4 2.667-4 2.333-5.666 2-8.333 4.666,1.666 4.666,17.166 10.666,27.833s10.5,39.334 19.5,45 23,13.5 42,6.5c20.5,10 43.667,2.833 52-19.5 4.667-12 8-24 10.5-37.5 3-9.5 6.333-15.666 8-18.333 .667,3.333-1.001,5.334-1.667,11 .667,2.333 2.334,3.666 2.334,3.666s17-4.333 22-17.333c5.333-13.333 9.333-30.001 15.333-37.667 2.667-3.666 6-6.666 6-6.666s-3.001,15.999-.667,30.666c0,9-3.666,27.001-9.333,36.334-8.333,10.333-16.334,18.332-22.667,26.666s-15.999,18.667-25.666,24.667-27.667,15.667-37.667,17.667-37.667,1.332-50.333-2.334c-9.333-2.666-25.667-11.667-32.667-22-7.667-3.666-23-13.332-32.667-33.666-4.333-5.667-16.667-18.333-19.667-35-2.667-10.334-3.333-17.001-4-33.334-.666-9.666-3.333-24.667-2.666-34.333-.667-9-3-18-1-23.333 .333-6 .667-16-2-19.667s-4.667-3-8-7.333c-3-1.667-4.667-2.667-7.667-3z" fill="#281512" opacity=".18"/>
 <path d="m299,260.333c0,0 3.667-3.333 2-11-1-5.333-1.333-5-3.333-8.333 6,.667 11.334,1.667 16,12 3,3.333 9.332,11.333 11.666,17 4,6.667 10.666,12.333 12,23.333 0,6.667-1,16.001-4.333,20.334-.667,2.666-2.333,4-2,6.333-1-3 .666-7.667 1.333-9.667s3-8.666 1-17.333c-2.333-6-3.334-9.001-10-17.667-3.666-5.333-4.334-11-12-17.333-4.666-3.667-5-3.666-7.333-4.333 .333,2-.333,6.666-5,6.666z" fill="#5d2c27" opacity=".54"/>
 <path d="m189.333,312.667c0,0-.333-7.668-5.333-19.334-.667-5.666.667-15.332 12.333-20.666h-6.667c4.333-4 15-12.666 17-15 2.333,1 4.333-.334 4.333-.334s4.667-7.667 7.333-7.667 6,3 6.667,5.667c.333-6.333 4-11.667 8-12.667 5.333-1.333 9-5 8.333-7-2-1.667-3.667-1.333-5.667,0-2.665.001-3.665-1.666-8.665,2.334-5,2-7,2-9.667,4s-7.667,6.333-11.667,12.333c-4.667,5-7.333,6.333-11,10s-10,12.334-12,12.667c-3,3.333-6,11.666-4.667,16.333s3.667,6 3.667,6 6.667,5.334 7.667,13.334z" fill="#391218" opacity=".54"/>
 <path d="m391,214c0,0-13.666,7.667-14.666,21.667 0,4.667.334,19.667-2,24 0,3 0,4.334 3,3s8.332-5.667 7.666-17.334c-1.666-9.333-4-9.334-5-11.667s-.666-6.666 1.334-8.666 3.666-.667 4.666.333 1,5.666 2,7.333 4,15 1.667,20.333c1.333.333 4-4.333 4-10s-2-14-2-16.667 4.333-6 3.333-8.667-1-3.998-4-3.665z" fill="url(#a)"/>
 <path d="m118.5,208.5c0,0-10-14.5-15-4.5-1,6 .25,13.25 1.25,15.75 1,4.5 2,16.5 5.5,19.5 .25-5 4.75-14.5 5.75-18.5s.25-10.75 2.5-12.25z" fill="#59191b"/>
 <path d="m126.5 221.75s8.25 8.25 6 12c-2.75 1-3 3.25-3 3.25s-1 10.25 3.5 14.75c0 2.25-5.25 0.75-5.75 2s-0.25 3.75-1 3.5-1.25-2-2.5-3-5.75-2.5-7-5.5-1.75-10 2-12.5 8.5-2.75 8.5-5.75-2.25-3.25-2-5 1.25-3.75 1.25-3.75z" fill="#59191b"/>
 <path d="m152.75 186.75" fill="#59191b"/>
 <path d="m118.5,208.5c0,0-7.75-10.75-11.25-8.25-2.75,1.75-3.75,3.5-3.25,6.75 2-2.5 7.25-5.25 8.5.25-.5,4.25-4.75,13.5-2,20.25-1.5,3.5-2,5-2.75,3 .5,3.25 2,6.25 2.75,7.75 .25-4.25 2-4.75 2-7s1.5-9.25 3-12.25c1.25-4.5.5-10.25 3-10.5z" fill="#3e1b1e"/>
 <path d="m125.75,222c0,0 4.5,6.25 7,7-.25,3-.75,4.75-1.75,5.25s-10.75,1.25-10,6c1.25,3 3.5,2.75 4.5,5.5s.75,4.75 3.5,4c2,.75 3.75,4.5 3.5,5.5 .5,2.25 1.5,4 .5,4.5s-2.25-5.25-4.5-6c-2,.25-4.75.75-7-1.75-2-1.5-3.5-1-3.5-1s-5.75-11-2.25-14.25 7-5.5 12-5.5c1.5-.75-.25-3.25-1-4.25s-1.75-2.5-1-5z" fill="#3e1b1e"/>
</svg>
