<?xml version="1.0" encoding="UTF-8"?>
<svg enable-background="new 0 0 72 75.289" viewBox="0 0 72 75.289" xmlns="http://www.w3.org/2000/svg">
 <path d="m22.32,2.809c1.982-1.184 4.397-1.016 6.96-1.92 1.834.86 3.93.243 5.76,0 .768.593 1.83.89 2.16,1.92 1.201.312 2.92.866 2.159,2.4-1.891-.269-2.213-2.106-3.6-2.88-4.484.316-9.435.165-12.48,1.92-2.045-.38-3.059-1.273-5.04-1.2 .258,1.022 1.482,1.078 2.4,1.44-.395.885-1.51,1.049-2.16,1.68 .514.846 1.68,1.04 1.44,2.64-1.62.18-1.2-1.681-2.4-1.92-1.586.654-3.535.945-4.08,2.64-3.006,1.234-5.982,2.498-7.2,5.52 1.062,2.034-.685,4.959-.72,7.68-.008.591.292,1.169.24,1.68-.296,2.882-1.672,5.634-1.92,8.4-.113.753.646.634.72,1.2-.08,2.258.936,3.26 1.44,5.28h1.2c.631-2.074-.359-4.598-.96-6.24-1.091-.298-1.92-1.638-.96-2.64 1.833,1.607 3.036,3.844 2.88,7.44 1.293.093.273-2.127.96-2.64 1.006-.126.951.809 1.2,1.44-1.72-.2-.71,2.331-1.44,3.121-.398.722-2.219.021-1.68,1.68-.739.179-.461-.659-1.2-.48-.542.179-.094,1.347-.24,1.92-1.366.234-1.4,1.801-1.92,2.881-1.384.552-1.809,3.012-3.839,2.158 .096-2.625 3.959-3.516 4.32-6 .063-.434-.217-1.227-.48-2.159-.324-1.147-.296-1.864-.96-2.641 .219-.42.083-1.197.48-1.44-.193-.827-1.234.148-1.68-.72 .949-1.417 1.602-3.449 1.92-5.52 .34-2.207.49-4.239.48-6.48-.007-1.569.835-3.234.96-4.8 .104-1.307-.169-2.55-.24-3.6-.016-.23.572-1.323-.24-1.2 1.548-1.388 3.917-3.666 6.96-4.32 1.146-1.573 1.863-3.577 5.04-3.12-1.306-3.297-6.177-.401-8.16-2.64v-2.4c.523.043.764-.196.72-.72 4.024-.775 6.049,1.347 9.12,1.68 1.826.199 3.032.059 4.08.96zm-12.48.24c1.132-.627 2.781-.739 3.84-1.44-1.359-.494-2.219-.009-3.84-.24-.342.32-.342,1.36 0,1.68zm9.12,1.68c-1.186-.578-2.543-2.252-4.32-1.44 1.234.535 2.62,2.901 4.32,1.44zm-14.64,34.8c1.375-.067.404-1.338-.24-1.44-.174.733.245.875.24,1.44z" fill-rule="evenodd"/>
 <path d="m53.52,1.609h.721c1.484,3.181 4.914,9.562.96,12.48-.194.914.703.736.72,1.44 .132.532-.458.342-.48.72 2.398,5.042 5.089,9.792 7.2,15.12-.276,3.534 1.864,5.321 3.601,7.2 3.738,4.048 4.539,11.521 5.76,18.96-.418.547-1.014,1.196-1.681,1.68-1.597,1.16-3.887,1.088-6.72,1.68-1.301,3.537-2.666,8.163-7.2,7.681-1.352.809-2.122,2.197-3.359,3.12-1.438.238-2.047-.354-2.641-.96-.738.381-.414,1.825-1.199,2.159-1.195.42-2.345.146-3.36-.239-1.528.316-2.388,1.732-3.84,2.16-1.616.476-3.4-.233-5.04.479-.799-.33-1.549-1.47-2.641-1.68-2.394-.461-4.639.694-6.72-.48-1.783-1.007-2.143-2.504-3.36-4.56-1.398-.385-2.888-.287-3.84,0-.82.247-2.037.809-2.64,1.2-1.65,1.069-1.922,3.725-4.32,3.84-.764-.998.548-1.581.24-2.88 2.459-1.647 5.17-4.233 9.36-3.36 .729-.599-1.079-1.935.24-2.4 1.309.416 1.491,2.07 2.16,3.12 1.846,2.895 4.192,4.438 9.6,3.601 .665.454 1.315.924 1.92,1.439h4.8c1.545-1.516 4.18-2.037 6.72-1.92 .836-1.323-.19-2.844-.96-3.359 .265-.776.648-1.433.96-2.16 4.116-.442 7.389,1.996 10.561.96 1.661-2.259 2.235-5.604 4.319-7.44 2.883-.309 5.218-.013 6.721-1.92-.039-.279.053-.427.239-.479 .054-2.451-.748-4.385-1.199-6.48-.848-3.934-1.209-7.894-3.36-10.56-1.287-1.596-3.557-2.701-4.32-4.8-.521-1.431-.062-3.071-.72-5.04-.533-1.598-2.047-3.071-2.88-4.8-.846-1.754-1.379-3.647-2.16-5.28-1.055-2.205-2.441-4.199-3.36-6.48-1.16.609-3.758,2.038-5.039.96 .555-1.365 3.585-.255 3.84-1.92-.993-1.319-3.232,1.134-4.801,0 .043-.683 3.19-1.261 3.841-1.2 1.368.129 2.462.941 2.399,1.92 .924-.902.996-.433 2.4-.24 .758-.738 1.53-2.553.96-3.84-.945.734-.236,3.124-1.68,3.36 .229-1.53.624-2.896.72-4.56-.959-.316-1.392,1.748-2.641,1.92-.731-.564.612-1.478 1.2-2.4 .605-.949 1.421-1.736.96-2.88-1.821,1.698-2.479,4.561-5.279,5.28-.893.253-.471-.809-.96-.96-1.722-.276-2.677,1.477-4.08.72 .037-1.635 2.383-1.165 3.6-1.68 .774-.328 1.94-1.086 2.4-1.68 .941-1.217.4-2.459 1.68-3.6 .639,2.428-1.123,4.455-2.4,5.76 1.717.193 2.412-2.706 3.841-3.6 .282-1.069.118-2.492.237-3.122zm1.68,14.16c.098-.578-.438-.521-.24-1.2h-.72c.135.585.205,1.235.96,1.2zm-6,51.36c.631,3.432 4.326,4.003 5.52.721-1.381-.576-4.451-.621-5.52-.721z" fill-rule="evenodd"/>
 <path d="m18.96,10.249c-.278,1.089-1.45.539-2.16.72-3.395.866-6.801,1.804-7.92,5.04-1.348-1.099.394-3.203 1.68-4.08 1.96-1.336 5.489-1.889 8.4-1.68z" fill-rule="evenodd"/>
 <path d="m45.359,12.889c-1.081-.278-2.833.114-2.88-1.2 .613-.112 2.967-.159 2.88,1.2z" fill-rule="evenodd"/>
 <path d="m41.04,12.169c-.82.62-.708,2.172-1.92,2.4-.713-1.164.53-3.338 1.92-2.4z" fill-rule="evenodd"/>
 <path d="m41.76,15.769c-.103,1.177-1.112,1.448-1.92,1.92-.621-1.222.556-1.965 1.92-1.92z" fill-rule="evenodd"/>
 <path d="m40.319,18.649h.721c.047.688.029,1.31-.721,1.2-.307-.315-.307-.885 0-1.2z" fill-rule="evenodd"/>
 <path d="m40.08,20.329c1.336.522 1.919,5.255-.48,5.28 1.13-1.747-.762-3.799.48-5.28z" fill-rule="evenodd"/>
 <path d="m11.76,21.529c.504,1.004-.169,2.638-.72,3.36-1.339-.223-.759-3.673.72-3.36z" fill-rule="evenodd"/>
 <path d="m37.68,22.249h.48c1.332.888 1.612,4.625.239,5.52-.979-1.457.528-3.802-.719-5.52z" fill-rule="evenodd"/>
 <path d="m55.2,25.369c.219,1.382 2.38,3.333 2.159,5.28-.088.781-.375-.065-.72.72-.36.82-.23,1.243-.96,1.92 .827,2.535 1.76,7.327-1.68,7.92-.45-.587-.562-1.297-.24-2.16-1.655-.159-1.981,2.103-3.36,1.44 1.229-1.652 1.91-3.851 4.561-4.08 .004-1.044.079-2.159-.24-2.88-.983.693-2.024,1.036-2.88,1.92-.947.978-1.209,3.078-3.12,3.12 .806-4.555 6.003-4.717 7.68-8.4-.328-1.111-1.421-1.458-1.68-2.64-1.855.224-1.657,2.502-3.6,2.64-.291-2.316 2.261-3.8 4.08-4.8zm-1.44,12.24c.115.765.297,1.463.96,1.68 .661-.699.151-2.639-.96-1.68z" fill-rule="evenodd"/>
 <path d="m18.48,28.249c.504,1.871-2.84,3.202-1.44,5.28-.821.101-.722-.719-1.2-.96-1.081,2.484-.265,4.591 0,7.68-1.15-.427-1.169.035-1.68.72-1.412-.107-1.411-1.628-2.64-1.92-.594.207.07,1.671-.48,1.92h-.96c-.338-1.997 1.289-3.183 1.2-5.28 1.198.642.645,3.035 1.92,3.6 1.08-.624-.184-2.349-.48-3.12 .271-1.088-.573-3.293.48-3.6 .752.597.116,2.147.24,3.36 .147,1.438.774,2.377.96,3.36 .833-.818-.012-3.519.24-5.52 .329-2.615 1.728-3.763 3.12-5.52h.72z" fill-rule="evenodd"/>
 <path d="m37.68,29.689c-.567,1.673-2.99,1.49-3.84,2.88-.863-.177-1.604-.476-1.44-1.68 1.938-.062 3.997-.003 4.561-1.44 .387-.068.412.227.719.24z" fill-rule="evenodd"/>
 <path d="m40.319,29.449c.388-.068.414.227.721.24 .299,3.777-4.399,4.271-6.721,3.36 .798-1.022 2.397-.306 3.601-.72 1.101-.379 2.092-1.503 2.399-2.88z" fill-rule="evenodd"/>
 <path d="m26.4,30.169c1.403,1.38 2.319,3.288 1.44,5.76-.89.39-1.238,1.322-1.92,1.92-.201,1.481.948,1.612.72,3.12-.321.429-1.389.743-1.92.24 .109-1.381.489-2.048 0-4.08 .715-.929 1.132-1.1.24-2.16-1.169-.209-1.592.328-2.4.48-.179-1.619 1.068-1.812 2.64-1.68 .906.693.758,1.367.96,2.4 1.723-.443 1.022-4.423 0-5.04-3.747-.687-6.463,3.557-7.68,6-.611,1.227.364,4.021 1.92,4.8-.628,1.983 1.401,2.753 1.68,4.561 1.74.3 1.058-1.822 1.92-2.4 1.08.322.996,1.828.72,2.88-.896.79-2.503,1.158-3.6.48-.801-2.618-2.992-4.392-3.6-7.2-.094-.436.112-.947 0-1.44-.432-1.891-.504-1.711.72-3.6 .835-1.29 1.084-1.727 2.16-2.88 .303-.325.625-1.131.72-1.2 1.329-.973 3.454-1.02 5.28-.961z" fill-rule="evenodd"/>
 <path d="m30.24,31.609c1.559.042 1.244,1.956 2.16,2.64 .565.005.707-.413 1.44-.24 .062.703-.543.737-.48,1.44 .945.353 2.203-2.005 3.601-1.2-.958,1.282-2.655,1.825-2.641,4.08h-.96c-.538-2.743-2.579-3.981-3.12-6.72z" fill-rule="evenodd"/>
 <path d="m23.04,35.929c.023,1.064-.285,1.795-1.2,1.92-.493-.954.134-1.841 1.2-1.92z" fill-rule="evenodd"/>
 <path d="m63.84,40.249c3.18,2.23 4.358,8.302 4.32,12.24-1.576.567-.61-1.405-.96-1.44-.186-4.534-1.938-7.502-3.36-10.8z" fill-rule="evenodd"/>
 <path d="m54.72,42.649c-.771,1.63-2.054,2.745-3.84,3.359-.972.709-.558,2.803-2.4,2.641-.569-.934.747-1.725.721-2.88 .631-.522 1.396-.702 2.159-1.2 1.112-.725 2.025-2.327 3.36-1.92z" fill-rule="evenodd"/>
 <path d="m61.439,52.489c-.983.993-2.828,1.378-1.92,3.6-1.202.242-.845-1.075-1.68-1.2-2.927,1.154-4.125,4.035-7.44,4.801-.237-1.649 1.855-2.084 2.881-2.88 1.715-1.333 3.45-2.867 5.039-4.561 1.325.423 2.706-1.483 3.12.24z" fill-rule="evenodd"/>
 <path d="m22.08,53.689c-.263,2.138-1.532,4.16-2.64,5.76-1.434,2.069-3.625,3.609-5.52,5.52-1.248,1.258-2.594,3.062-4.32,3.12 .441-2.716 2.999-4.144 5.04-5.76 2.652-2.099 4.648-4.495 6.24-7.92-.068-.388.227-.413.24-.72h.96z" fill-rule="evenodd"/>
 <path d="m65.04,57.289c-.808.167-.787-.493-1.2-.72-1.051.49-2.586,2.163-3.84.96 .393-2.253 5.878-4.113 5.04-.24z" fill-rule="evenodd"/>
</svg>
