<?xml version="1.0" encoding="UTF-8"?>
<svg viewBox="0 0 310 310" xmlns="http://www.w3.org/2000/svg">
 <g transform="matrix(1.25,0,0,-1.25,0,310)">
  <g transform="translate(-1692,-1584)">
   <path d="m1692 1832h248.03v-248.03h-248.03v248.03z" fill="#0a93db"/>
   <path d="m1768.7 1743.9c-1.4535-0.3582-0.9162-2.5386 0.5373-2.1804 10.515 2.5913 12.725 1.5583 20.696-3.8063-1.5906-1.3475-5.1172-2.8655-8.9101-3.8386-0.8944-0.2295-6.7203-1.4933-7.6975-0.5933-1.5851 8.1545 6.7224 7.5808 7.6479 2.9157 0.2914-1.4685 2.494-1.0314 2.2027 0.437-1.607 8.1001-14.063 6.699-12.006-3.8849 1.0052-5.1717 19.084 0.6772 21.41 4.6132l-0.3381 1.5016c-9.1955 6.2132-11.778 7.7351-23.543 4.836zm106.11-119.31c-4.1985-15.198-75.797-9.5217-75.797-1.6932 0 10.963 12.867 9.836 11.351 28.444-8.9035-0.5655-41.115-9.2921-41.115 6.7725 0 5.2767 3.5313 9.8488 3.5313 15.125 0 3.8799-4.5403 6.0534-4.5403 9.933 0 6.9296 11.347 7.9818 15.891 12.416-3.6679 1.2405-6.9426-1.1288-10.594-1.1288-13.586 0-7.8193 7.5178-7.8193 14.109 0 9.6309-22.197 3.8011-22.197 13.432 0 9.805 19.17 7.6907 19.17 17.496 0 42.772 18.102 61.404 66.464 61.404 11.44 0 35.955-6.5923 44.141-19.075 41.074-62.632-13.797-71.12-15.375-99.936-1.376-25.123-1.1655-33.809 16.889-57.3z" fill="#fff" fill-rule="evenodd"/>
  </g>
 </g>
</svg>
